<?xml version="1.0" encoding="UTF-8"?>
<mxfile host="Electron" agent="Mozilla/5.0 (X11; Linux x86_64) AppleWebKit/537.36 (KHTML, like Gecko) draw.io/26.0.9 Chrome/128.0.6613.186 Electron/32.2.5 Safari/537.36" version="26.0.9">
  <diagram name="Page-1" id="p8aQvyDUQYq92q0p4kUF">
    <mxGraphModel dx="6660" dy="6824" grid="1" gridSize="10" guides="1" tooltips="1" connect="1" arrows="1" fold="1" page="1" pageScale="1" pageWidth="1169" pageHeight="827" background="none" math="1" shadow="0">
      <root>
        <mxCell id="0" />
        <mxCell id="1" parent="0" />
        <mxCell id="2" value="" style="group;movable=1;resizable=1;rotatable=1;deletable=1;editable=1;locked=0;connectable=1;" vertex="1" connectable="0" parent="1">
          <mxGeometry x="20" y="-850" width="1114.5" height="505" as="geometry" />
        </mxCell>
        <mxCell id="3" value="i&lt;sub&gt;2Low&lt;/sub&gt;" style="text;html=1;align=center;verticalAlign=middle;resizable=0;points=[];autosize=1;strokeColor=none;fillColor=none;fontStyle=2;rounded=0;strokeWidth=2;movable=0;rotatable=0;deletable=0;editable=0;locked=1;connectable=0;" vertex="1" parent="2">
          <mxGeometry x="505" y="259.92999999999995" width="50" height="30" as="geometry" />
        </mxCell>
        <mxCell id="4" value="V&lt;sub&gt;1Low&lt;/sub&gt;" style="text;html=1;align=center;verticalAlign=middle;resizable=0;points=[];autosize=1;strokeColor=none;fillColor=none;fontStyle=2;rounded=0;strokeWidth=2;movable=0;rotatable=0;deletable=0;editable=0;locked=1;connectable=0;" vertex="1" parent="2">
          <mxGeometry x="95" y="360" width="60" height="30" as="geometry" />
        </mxCell>
        <mxCell id="5" value="C&lt;sub&gt;High&lt;/sub&gt;" style="text;html=1;align=center;verticalAlign=middle;resizable=0;points=[];autosize=1;strokeColor=none;fillColor=none;fontSize=20;fontStyle=1;rounded=0;strokeWidth=2;movable=0;rotatable=0;deletable=0;editable=0;locked=1;connectable=0;" vertex="1" parent="2">
          <mxGeometry x="826" y="213.25" width="70" height="40" as="geometry" />
        </mxCell>
        <mxCell id="6" value="C&lt;sub&gt;1Low&lt;/sub&gt;" style="text;html=1;align=center;verticalAlign=middle;resizable=0;points=[];autosize=1;strokeColor=none;fillColor=none;fontSize=20;fontStyle=1;rounded=0;strokeWidth=2;movable=0;rotatable=0;deletable=0;editable=0;locked=1;connectable=0;" vertex="1" parent="2">
          <mxGeometry x="209" y="314.0000000000001" width="80" height="40" as="geometry" />
        </mxCell>
        <mxCell id="7" value="L&lt;sub&gt;1&lt;/sub&gt;" style="text;html=1;align=center;verticalAlign=middle;resizable=0;points=[];autosize=1;strokeColor=none;fillColor=none;fontSize=20;fontStyle=1;rounded=0;strokeWidth=2;movable=0;rotatable=0;deletable=0;editable=0;locked=1;connectable=0;" vertex="1" parent="2">
          <mxGeometry x="565" y="168.25" width="40" height="40" as="geometry" />
        </mxCell>
        <mxCell id="8" value="L&lt;sub&gt;2&lt;/sub&gt;" style="text;html=1;align=center;verticalAlign=middle;resizable=0;points=[];autosize=1;strokeColor=none;fillColor=none;fontSize=20;fontStyle=1;rounded=0;strokeWidth=2;movable=0;rotatable=0;deletable=0;editable=0;locked=1;connectable=0;" vertex="1" parent="2">
          <mxGeometry x="565" y="215.25" width="40" height="40" as="geometry" />
        </mxCell>
        <mxCell id="9" value="V&lt;sub&gt;1Low&lt;/sub&gt;" style="text;html=1;align=center;verticalAlign=middle;resizable=0;points=[];autosize=1;strokeColor=none;fillColor=none;fontSize=20;fontStyle=1;rounded=0;strokeWidth=2;movable=0;rotatable=0;deletable=0;editable=0;locked=1;connectable=0;" vertex="1" parent="2">
          <mxGeometry x="45" y="169.25" width="80" height="40" as="geometry" />
        </mxCell>
        <mxCell id="10" value="V&lt;sub&gt;2Low&lt;/sub&gt;" style="text;html=1;align=center;verticalAlign=middle;resizable=0;points=[];autosize=1;strokeColor=none;fillColor=none;fontSize=20;fontStyle=1;rounded=0;strokeWidth=2;movable=0;rotatable=0;deletable=0;editable=0;locked=1;connectable=0;" vertex="1" parent="2">
          <mxGeometry x="45" y="211.25" width="80" height="40" as="geometry" />
        </mxCell>
        <mxCell id="11" value="GND" style="text;html=1;align=center;verticalAlign=middle;resizable=0;points=[];autosize=1;strokeColor=none;fillColor=none;fontSize=20;fontStyle=1;rounded=0;strokeWidth=2;movable=0;rotatable=0;deletable=0;editable=0;locked=1;connectable=0;" vertex="1" parent="2">
          <mxGeometry x="50" y="401.25" width="70" height="40" as="geometry" />
        </mxCell>
        <mxCell id="12" value="GND" style="text;html=1;align=center;verticalAlign=middle;resizable=0;points=[];autosize=1;strokeColor=none;fillColor=none;fontSize=20;fontStyle=1;rounded=0;strokeWidth=2;movable=0;rotatable=0;deletable=0;editable=0;locked=1;connectable=0;" vertex="1" parent="2">
          <mxGeometry x="1013" y="402.5" width="70" height="40" as="geometry" />
        </mxCell>
        <mxCell id="13" value="V&lt;sub&gt;High&lt;/sub&gt;" style="text;html=1;align=center;verticalAlign=middle;resizable=0;points=[];autosize=1;strokeColor=none;fillColor=none;fontStyle=2;rounded=0;strokeWidth=2;movable=0;rotatable=0;deletable=0;editable=0;locked=1;connectable=0;" vertex="1" parent="2">
          <mxGeometry x="913" y="253.25" width="50" height="30" as="geometry" />
        </mxCell>
        <mxCell id="14" value="i&lt;sub&gt;High&lt;/sub&gt;" style="text;html=1;align=center;verticalAlign=middle;resizable=0;points=[];autosize=1;strokeColor=none;fillColor=none;fontStyle=2;rounded=0;strokeWidth=2;movable=0;rotatable=0;deletable=0;editable=0;locked=1;connectable=0;" vertex="1" parent="2">
          <mxGeometry x="963" y="70" width="50" height="30" as="geometry" />
        </mxCell>
        <mxCell id="15" value="Q&lt;sub&gt;5&lt;/sub&gt;" style="text;html=1;align=center;verticalAlign=middle;resizable=0;points=[];autosize=1;strokeColor=none;fillColor=none;fontSize=20;fontStyle=1;rounded=0;strokeWidth=2;movable=0;rotatable=0;deletable=0;editable=0;locked=1;connectable=0;" vertex="1" parent="2">
          <mxGeometry x="174" y="322.75" width="50" height="40" as="geometry" />
        </mxCell>
        <mxCell id="16" value="" style="shape=waypoint;fillStyle=solid;size=6;pointerEvents=1;points=[];fillColor=none;resizable=0;rotatable=0;perimeter=centerPerimeter;snapToPoint=1;strokeColor=none;rounded=0;strokeWidth=2;movable=0;deletable=0;editable=0;locked=1;connectable=0;" vertex="1" parent="2">
          <mxGeometry x="122" y="237.25" width="20" height="20" as="geometry" />
        </mxCell>
        <mxCell id="17" value="" style="edgeStyle=none;orthogonalLoop=1;jettySize=auto;html=1;rounded=0;strokeWidth=2;endArrow=none;endFill=0;movable=0;resizable=0;rotatable=0;deletable=0;editable=0;locked=1;connectable=0;" edge="1" parent="2" source="22">
          <mxGeometry width="100" relative="1" as="geometry">
            <mxPoint x="292" y="449.25" as="sourcePoint" />
            <mxPoint x="1052" y="449.25" as="targetPoint" />
            <Array as="points" />
          </mxGeometry>
        </mxCell>
        <mxCell id="18" value="" style="verticalLabelPosition=bottom;shadow=0;dashed=0;align=center;html=1;verticalAlign=top;strokeWidth=2;shape=ellipse;perimeter=ellipsePerimeter;rounded=0;fillColor=none;movable=0;resizable=0;rotatable=0;deletable=0;editable=0;locked=1;connectable=0;" vertex="1" parent="2">
          <mxGeometry x="95" y="209.25" width="15" height="15" as="geometry" />
        </mxCell>
        <mxCell id="19" value="" style="verticalLabelPosition=bottom;shadow=0;dashed=0;align=center;html=1;verticalAlign=top;strokeWidth=2;shape=ellipse;perimeter=ellipsePerimeter;rounded=0;fillColor=none;movable=0;resizable=0;rotatable=0;deletable=0;editable=0;locked=1;connectable=0;" vertex="1" parent="2">
          <mxGeometry x="95" y="251.75" width="15" height="15" as="geometry" />
        </mxCell>
        <mxCell id="20" value="" style="verticalLabelPosition=bottom;shadow=0;dashed=0;align=center;html=1;verticalAlign=top;strokeWidth=2;shape=ellipse;perimeter=ellipsePerimeter;rounded=0;fillColor=none;movable=0;resizable=0;rotatable=0;deletable=0;editable=0;locked=1;connectable=0;" vertex="1" parent="2">
          <mxGeometry x="95" y="442.5" width="15" height="15" as="geometry" />
        </mxCell>
        <mxCell id="21" value="" style="verticalLabelPosition=bottom;shadow=0;dashed=0;align=center;html=1;verticalAlign=top;strokeWidth=2;shape=ellipse;perimeter=ellipsePerimeter;rounded=0;fillColor=none;movable=0;resizable=0;rotatable=0;deletable=0;editable=0;locked=1;connectable=0;" vertex="1" parent="2">
          <mxGeometry x="1040.5" y="52.5" width="15" height="15" as="geometry" />
        </mxCell>
        <mxCell id="22" value="" style="verticalLabelPosition=bottom;shadow=0;dashed=0;align=center;html=1;verticalAlign=top;strokeWidth=2;shape=ellipse;perimeter=ellipsePerimeter;rounded=0;fillColor=none;movable=0;resizable=0;rotatable=0;deletable=0;editable=0;locked=1;connectable=0;" vertex="1" parent="2">
          <mxGeometry x="1042" y="442.5" width="15" height="15" as="geometry" />
        </mxCell>
        <mxCell id="23" value="i&lt;sub&gt;1Low&lt;/sub&gt;" style="text;html=1;align=center;verticalAlign=middle;resizable=0;points=[];autosize=1;strokeColor=none;fillColor=none;fontStyle=2;rounded=0;strokeWidth=2;movable=0;rotatable=0;deletable=0;editable=0;locked=1;connectable=0;" vertex="1" parent="2">
          <mxGeometry x="505" y="175.75" width="50" height="30" as="geometry" />
        </mxCell>
        <mxCell id="24" value="+" style="text;html=1;align=center;verticalAlign=middle;resizable=0;points=[];autosize=1;strokeColor=none;fillColor=none;strokeWidth=2;fontStyle=1;rounded=0;movable=0;rotatable=0;deletable=0;editable=0;locked=1;connectable=0;" vertex="1" parent="2">
          <mxGeometry x="491" y="243" width="30" height="30" as="geometry" />
        </mxCell>
        <mxCell id="25" value="V&lt;sub&gt;2Low&lt;/sub&gt;" style="text;html=1;align=center;verticalAlign=middle;resizable=0;points=[];autosize=1;strokeColor=none;fillColor=none;fontStyle=2;rounded=0;strokeWidth=2;movable=0;rotatable=0;deletable=0;editable=0;locked=1;connectable=0;" vertex="1" parent="2">
          <mxGeometry x="279" y="360" width="60" height="30" as="geometry" />
        </mxCell>
        <mxCell id="26" value="" style="shape=waypoint;fillStyle=solid;size=6;pointerEvents=1;points=[];fillColor=none;resizable=0;rotatable=0;perimeter=centerPerimeter;snapToPoint=1;strokeColor=none;rounded=0;strokeWidth=2;movable=0;deletable=0;editable=0;locked=1;connectable=0;" vertex="1" parent="2">
          <mxGeometry x="123" y="256.25" width="20" height="20" as="geometry" />
        </mxCell>
        <mxCell id="27" value="" style="pointerEvents=1;verticalLabelPosition=middle;shadow=0;dashed=0;align=left;html=1;verticalAlign=top;shape=mxgraph.electrical.capacitors.capacitor_2;spacing=0;labelPosition=center;spacingTop=10;spacingLeft=25;fillColor=none;rotation=90;strokeWidth=2;movable=0;resizable=0;rotatable=0;deletable=0;editable=0;locked=1;connectable=0;" vertex="1" parent="2">
          <mxGeometry x="189" y="300" width="60" height="20" as="geometry" />
        </mxCell>
        <mxCell id="28" value="" style="pointerEvents=1;verticalLabelPosition=middle;shadow=0;dashed=0;align=left;html=1;verticalAlign=top;shape=mxgraph.electrical.capacitors.capacitor_1;labelPosition=center;spacingBottom=0;spacingLeft=25;direction=east;spacing=0;spacingTop=10;points=[[0,0.5,0,0,0],[0.5,0,0,0,-3],[0.5,1,0,0,2],[1,0.5,0,0,0]];fillColor=none;rotation=90;strokeWidth=2;movable=0;resizable=0;rotatable=0;deletable=0;editable=0;locked=1;connectable=0;" vertex="1" parent="2">
          <mxGeometry x="249" y="301.75" width="60" height="20" as="geometry" />
        </mxCell>
        <mxCell id="29" value="" style="shape=waypoint;sketch=0;fillStyle=solid;size=6;pointerEvents=1;points=[];fillColor=none;resizable=0;rotatable=0;perimeter=centerPerimeter;snapToPoint=1;strokeWidth=2;movable=0;deletable=0;editable=0;locked=1;connectable=0;" vertex="1" parent="2">
          <mxGeometry x="235" y="419.75" width="20" height="20" as="geometry" />
        </mxCell>
        <mxCell id="30" value="" style="edgeStyle=orthogonalEdgeStyle;orthogonalLoop=1;jettySize=auto;html=1;rounded=0;exitX=1;exitY=0.5;exitDx=0;exitDy=0;exitPerimeter=0;endArrow=none;startFill=0;entryX=0.903;entryY=0.529;entryDx=0;entryDy=0;entryPerimeter=0;strokeWidth=2;movable=0;resizable=0;rotatable=0;deletable=0;editable=0;locked=1;connectable=0;" edge="1" parent="2" source="28" target="29">
          <mxGeometry width="100" relative="1" as="geometry">
            <mxPoint x="239" y="390" as="sourcePoint" />
            <mxPoint x="255" y="430" as="targetPoint" />
            <Array as="points">
              <mxPoint x="279" y="430" />
            </Array>
          </mxGeometry>
        </mxCell>
        <mxCell id="31" value="" style="edgeStyle=elbowEdgeStyle;orthogonalLoop=1;jettySize=auto;html=1;rounded=0;exitX=1;exitY=1;exitDx=0;exitDy=0;entryX=0.5;entryY=0.512;entryDx=0;entryDy=0;entryPerimeter=0;endArrow=none;startFill=0;elbow=vertical;strokeWidth=2;movable=0;resizable=0;rotatable=0;deletable=0;editable=0;locked=1;connectable=0;" edge="1" parent="2" source="89">
          <mxGeometry width="100" relative="1" as="geometry">
            <mxPoint x="213" y="400" as="sourcePoint" />
            <mxPoint x="249" y="429.75" as="targetPoint" />
          </mxGeometry>
        </mxCell>
        <mxCell id="32" value="" style="shape=waypoint;sketch=0;fillStyle=solid;size=6;pointerEvents=1;points=[];fillColor=none;resizable=0;rotatable=0;perimeter=centerPerimeter;snapToPoint=1;strokeWidth=2;movable=0;deletable=0;editable=0;locked=1;connectable=0;" vertex="1" parent="2">
          <mxGeometry x="235" y="270.25" width="20" height="20" as="geometry" />
        </mxCell>
        <mxCell id="33" value="" style="edgeStyle=orthogonalEdgeStyle;orthogonalLoop=1;jettySize=auto;html=1;rounded=0;exitX=0;exitY=0.5;exitDx=0;exitDy=0;exitPerimeter=0;entryX=0.566;entryY=0.596;entryDx=0;entryDy=0;entryPerimeter=0;elbow=vertical;endArrow=none;startFill=0;strokeWidth=2;movable=0;resizable=0;rotatable=0;deletable=0;editable=0;locked=1;connectable=0;" edge="1" parent="2" source="27" target="32">
          <mxGeometry width="100" relative="1" as="geometry">
            <mxPoint x="209" y="270" as="sourcePoint" />
            <mxPoint x="309" y="270" as="targetPoint" />
            <Array as="points">
              <mxPoint x="219" y="280" />
              <mxPoint x="245" y="280" />
            </Array>
          </mxGeometry>
        </mxCell>
        <mxCell id="34" value="" style="edgeStyle=orthogonalEdgeStyle;orthogonalLoop=1;jettySize=auto;html=1;rounded=0;exitX=0;exitY=0.5;exitDx=0;exitDy=0;exitPerimeter=0;entryX=0.7;entryY=0.487;entryDx=0;entryDy=0;entryPerimeter=0;elbow=vertical;endArrow=none;startFill=0;strokeWidth=2;movable=0;resizable=0;rotatable=0;deletable=0;editable=0;locked=1;connectable=0;" edge="1" parent="2" source="28" target="32">
          <mxGeometry width="100" relative="1" as="geometry">
            <mxPoint x="249" y="273.75" as="sourcePoint" />
            <mxPoint x="275" y="271.75" as="targetPoint" />
            <Array as="points">
              <mxPoint x="269" y="280" />
              <mxPoint x="245" y="280" />
            </Array>
          </mxGeometry>
        </mxCell>
        <mxCell id="35" value="" style="edgeStyle=elbowEdgeStyle;orthogonalLoop=1;jettySize=auto;html=1;rounded=0;entryX=0.614;entryY=0.117;entryDx=0;entryDy=0;entryPerimeter=0;endArrow=none;startFill=0;exitX=0.7;exitY=0.663;exitDx=0;exitDy=0;exitPerimeter=0;jumpStyle=arc;strokeWidth=2;movable=0;resizable=0;rotatable=0;deletable=0;editable=0;locked=1;connectable=0;" edge="1" parent="2" source="36" target="32">
          <mxGeometry width="100" relative="1" as="geometry">
            <mxPoint x="215" y="230" as="sourcePoint" />
            <mxPoint x="223" y="270.25" as="targetPoint" />
            <Array as="points">
              <mxPoint x="245" y="250" />
              <mxPoint x="221" y="250" />
            </Array>
          </mxGeometry>
        </mxCell>
        <mxCell id="36" value="" style="shape=waypoint;sketch=0;fillStyle=solid;size=6;pointerEvents=1;points=[];fillColor=none;resizable=0;rotatable=0;perimeter=centerPerimeter;snapToPoint=1;strokeWidth=2;movable=0;deletable=0;editable=0;locked=1;connectable=0;" vertex="1" parent="2">
          <mxGeometry x="235" y="206.75" width="20" height="20" as="geometry" />
        </mxCell>
        <mxCell id="37" value="" style="edgeStyle=elbowEdgeStyle;orthogonalLoop=1;jettySize=auto;html=1;rounded=0;entryX=0.218;entryY=0.086;entryDx=0;entryDy=0;entryPerimeter=0;endArrow=none;startFill=0;exitDx=0;exitDy=0;jumpStyle=arc;strokeWidth=2;movable=0;resizable=0;rotatable=0;deletable=0;editable=0;locked=1;connectable=0;" edge="1" parent="2" source="93" target="36">
          <mxGeometry width="100" relative="1" as="geometry">
            <mxPoint x="234.94999999999982" y="190" as="sourcePoint" />
            <mxPoint x="234.94999999999982" y="253" as="targetPoint" />
          </mxGeometry>
        </mxCell>
        <mxCell id="38" value="" style="shape=waypoint;sketch=0;fillStyle=solid;size=6;pointerEvents=1;points=[];fillColor=none;resizable=0;rotatable=0;perimeter=centerPerimeter;snapToPoint=1;strokeWidth=2;movable=0;deletable=0;editable=0;locked=1;connectable=0;" vertex="1" parent="2">
          <mxGeometry x="326" y="248.75" width="20" height="20" as="geometry" />
        </mxCell>
        <mxCell id="39" value="" style="edgeStyle=elbowEdgeStyle;orthogonalLoop=1;jettySize=auto;html=1;rounded=0;entryX=0.5;entryY=0;entryDx=0;entryDy=0;entryPerimeter=0;endArrow=none;startFill=0;exitX=0.651;exitY=0.911;exitDx=0;exitDy=0;exitPerimeter=0;jumpStyle=arc;strokeWidth=2;movable=0;resizable=0;rotatable=0;deletable=0;editable=0;locked=1;connectable=0;" edge="1" parent="2" source="38" target="163">
          <mxGeometry width="100" relative="1" as="geometry">
            <mxPoint x="289" y="237" as="sourcePoint" />
            <mxPoint x="289" y="300" as="targetPoint" />
          </mxGeometry>
        </mxCell>
        <mxCell id="40" value="" style="shape=waypoint;sketch=0;fillStyle=solid;size=6;pointerEvents=1;points=[];fillColor=none;resizable=0;rotatable=0;perimeter=centerPerimeter;snapToPoint=1;strokeWidth=2;movable=0;deletable=0;editable=0;locked=1;connectable=0;" vertex="1" parent="2">
          <mxGeometry x="326" y="440" width="20" height="20" as="geometry" />
        </mxCell>
        <mxCell id="41" value="" style="edgeStyle=elbowEdgeStyle;orthogonalLoop=1;jettySize=auto;html=1;rounded=0;entryX=0.627;entryY=0.002;entryDx=0;entryDy=0;entryPerimeter=0;endArrow=none;startFill=0;exitX=0.5;exitY=1;exitDx=0;exitDy=0;exitPerimeter=0;jumpStyle=arc;strokeWidth=2;movable=0;resizable=0;rotatable=0;deletable=0;editable=0;locked=1;connectable=0;" edge="1" parent="2" source="163" target="40">
          <mxGeometry width="100" relative="1" as="geometry">
            <mxPoint x="346" y="269" as="sourcePoint" />
            <mxPoint x="346" y="340" as="targetPoint" />
          </mxGeometry>
        </mxCell>
        <mxCell id="42" value="" style="edgeStyle=elbowEdgeStyle;orthogonalLoop=1;jettySize=auto;html=1;rounded=0;entryX=0.367;entryY=0.484;entryDx=0;entryDy=0;entryPerimeter=0;endArrow=none;startFill=0;exitDx=0;exitDy=0;jumpStyle=arc;strokeWidth=2;movable=0;resizable=0;rotatable=0;deletable=0;editable=0;locked=1;connectable=0;" edge="1" parent="2" source="45" target="40">
          <mxGeometry width="100" relative="1" as="geometry">
            <mxPoint x="332" y="279" as="sourcePoint" />
            <mxPoint x="332" y="350" as="targetPoint" />
          </mxGeometry>
        </mxCell>
        <mxCell id="43" value="" style="edgeStyle=elbowEdgeStyle;orthogonalLoop=1;jettySize=auto;html=1;rounded=0;endArrow=none;startFill=0;exitX=0.532;exitY=1.003;exitDx=0;exitDy=0;exitPerimeter=0;jumpStyle=arc;entryX=0.631;entryY=0.447;entryDx=0;entryDy=0;entryPerimeter=0;strokeWidth=2;movable=0;resizable=0;rotatable=0;deletable=0;editable=0;locked=1;connectable=0;" edge="1" parent="2" source="29" target="45">
          <mxGeometry width="100" relative="1" as="geometry">
            <mxPoint x="342" y="289" as="sourcePoint" />
            <mxPoint x="269" y="440" as="targetPoint" />
          </mxGeometry>
        </mxCell>
        <mxCell id="44" value="" style="edgeStyle=elbowEdgeStyle;orthogonalLoop=1;jettySize=auto;html=1;rounded=0;entryDx=0;entryDy=0;entryPerimeter=0;endArrow=none;startFill=0;exitDx=0;exitDy=0;jumpStyle=arc;strokeWidth=2;movable=0;resizable=0;rotatable=0;deletable=0;editable=0;locked=1;connectable=0;" edge="1" parent="2" source="47" target="45">
          <mxGeometry width="100" relative="1" as="geometry">
            <mxPoint x="110" y="450" as="sourcePoint" />
            <mxPoint x="288" y="450" as="targetPoint" />
          </mxGeometry>
        </mxCell>
        <mxCell id="45" value="" style="shape=waypoint;sketch=0;fillStyle=solid;size=6;pointerEvents=1;points=[];fillColor=none;resizable=0;rotatable=0;perimeter=centerPerimeter;snapToPoint=1;strokeWidth=2;movable=0;deletable=0;editable=0;locked=1;connectable=0;" vertex="1" parent="2">
          <mxGeometry x="235" y="439.75" width="20" height="20" as="geometry" />
        </mxCell>
        <mxCell id="46" value="" style="edgeStyle=elbowEdgeStyle;orthogonalLoop=1;jettySize=auto;html=1;rounded=0;entryDx=0;entryDy=0;entryPerimeter=0;endArrow=none;startFill=0;exitX=1;exitY=0.5;exitDx=0;exitDy=0;jumpStyle=arc;strokeWidth=2;movable=0;resizable=0;rotatable=0;deletable=0;editable=0;locked=1;connectable=0;" edge="1" parent="2" source="20" target="47">
          <mxGeometry width="100" relative="1" as="geometry">
            <mxPoint x="110" y="450" as="sourcePoint" />
            <mxPoint x="221" y="450" as="targetPoint" />
          </mxGeometry>
        </mxCell>
        <mxCell id="47" value="" style="shape=waypoint;sketch=0;fillStyle=solid;size=6;pointerEvents=1;points=[];fillColor=none;resizable=0;rotatable=0;perimeter=centerPerimeter;snapToPoint=1;strokeWidth=2;movable=0;deletable=0;editable=0;locked=1;connectable=0;" vertex="1" parent="2">
          <mxGeometry x="144" y="439.75" width="20" height="20" as="geometry" />
        </mxCell>
        <mxCell id="48" value="" style="group;strokeWidth=2;movable=0;resizable=0;rotatable=0;deletable=0;editable=0;locked=1;connectable=0;" connectable="0" vertex="1" parent="2">
          <mxGeometry x="134" y="320" width="40" height="50" as="geometry" />
        </mxCell>
        <mxCell id="49" value="+" style="text;html=1;align=center;verticalAlign=middle;resizable=0;points=[];autosize=1;strokeColor=none;fillColor=none;fontStyle=1;rounded=0;movable=0;rotatable=0;deletable=0;editable=0;locked=1;connectable=0;" vertex="1" parent="48">
          <mxGeometry x="5" width="30" height="30" as="geometry" />
        </mxCell>
        <mxCell id="50" value="V" style="verticalLabelPosition=middle;shadow=0;dashed=0;align=center;html=1;verticalAlign=middle;strokeWidth=2;shape=ellipse;aspect=fixed;fontSize=20;spacing=0;spacingBottom=2;points=[[0,0.5,0,0,0],[0.5,0,0,0,0],[0.5,1,0,0,0],[1,0.5,0,0,0]];fillColor=none;movable=0;resizable=0;rotatable=0;deletable=0;editable=0;locked=1;connectable=0;" vertex="1" parent="48">
          <mxGeometry y="10" width="40" height="40" as="geometry" />
        </mxCell>
        <mxCell id="51" value="" style="edgeStyle=elbowEdgeStyle;orthogonalLoop=1;jettySize=auto;html=1;rounded=0;entryX=0.5;entryY=0;entryDx=0;entryDy=0;entryPerimeter=0;endArrow=none;startFill=0;jumpStyle=arc;exitX=0.509;exitY=0.645;exitDx=0;exitDy=0;exitPerimeter=0;strokeWidth=2;movable=0;resizable=0;rotatable=0;deletable=0;editable=0;locked=1;connectable=0;" edge="1" parent="2" source="93" target="50">
          <mxGeometry width="100" relative="1" as="geometry">
            <mxPoint x="155" y="280" as="sourcePoint" />
            <mxPoint x="119.63999999999987" y="373.5" as="targetPoint" />
          </mxGeometry>
        </mxCell>
        <mxCell id="52" value="" style="edgeStyle=elbowEdgeStyle;orthogonalLoop=1;jettySize=auto;html=1;rounded=0;entryX=0.554;entryY=0.102;entryDx=0;entryDy=0;entryPerimeter=0;endArrow=none;startFill=0;exitX=0.5;exitY=1;exitDx=0;exitDy=0;exitPerimeter=0;jumpStyle=arc;strokeWidth=2;movable=0;resizable=0;rotatable=0;deletable=0;editable=0;locked=1;connectable=0;" edge="1" parent="2" source="50" target="47">
          <mxGeometry width="100" relative="1" as="geometry">
            <mxPoint x="164" y="269" as="sourcePoint" />
            <mxPoint x="164" y="340" as="targetPoint" />
          </mxGeometry>
        </mxCell>
        <mxCell id="53" value="A" style="verticalLabelPosition=middle;shadow=0;dashed=0;align=center;html=1;verticalAlign=middle;strokeWidth=2;shape=ellipse;aspect=fixed;fontSize=20;spacing=0;spacingBottom=2;spacingTop=0;points=[[0,0.5,0,0,0],[0.5,0,0,0,0],[0.5,1,0,0,0],[1,0.5,0,0,0]];fillColor=none;movable=0;resizable=0;rotatable=0;deletable=0;editable=0;locked=1;connectable=0;" vertex="1" parent="2">
          <mxGeometry x="475" y="240" width="40" height="40" as="geometry" />
        </mxCell>
        <mxCell id="54" value="A" style="verticalLabelPosition=middle;shadow=0;dashed=0;align=center;html=1;verticalAlign=middle;strokeWidth=2;shape=ellipse;aspect=fixed;fontSize=20;spacing=0;spacingBottom=2;spacingTop=0;points=[[0,0.5,0,0,0],[0.5,0,0,0,0],[0.5,1,0,0,0],[1,0.5,0,0,0]];fillColor=none;movable=0;resizable=0;rotatable=0;deletable=0;editable=0;locked=1;connectable=0;" vertex="1" parent="2">
          <mxGeometry x="475" y="196" width="40" height="40" as="geometry" />
        </mxCell>
        <mxCell id="55" value="+" style="text;html=1;align=center;verticalAlign=middle;resizable=0;points=[];autosize=1;strokeColor=none;fillColor=none;strokeWidth=2;fontStyle=1;rounded=0;movable=0;rotatable=0;deletable=0;editable=0;locked=1;connectable=0;" vertex="1" parent="2">
          <mxGeometry x="491" y="198.75" width="30" height="30" as="geometry" />
        </mxCell>
        <mxCell id="56" value="" style="pointerEvents=1;verticalLabelPosition=middle;shadow=0;dashed=0;align=left;html=1;verticalAlign=top;shape=mxgraph.electrical.inductors.inductor_3;labelPosition=center;spacingBottom=0;spacingLeft=25;direction=east;spacing=0;spacingTop=0;points=[[0,1,0,0,0],[0.5,1,0,0,0],[1,1,0,0,0]];fillColor=none;strokeWidth=2;movable=0;resizable=0;rotatable=0;deletable=0;editable=0;locked=1;connectable=0;" vertex="1" parent="2">
          <mxGeometry x="555" y="206" width="60" height="10" as="geometry" />
        </mxCell>
        <mxCell id="57" value="" style="pointerEvents=1;verticalLabelPosition=middle;shadow=0;dashed=0;align=left;html=1;verticalAlign=top;shape=mxgraph.electrical.inductors.inductor_3;labelPosition=center;spacingBottom=0;spacingLeft=25;direction=east;spacing=0;spacingTop=0;points=[[0,1,0,0,0],[0.5,1,0,0,0],[1,1,0,0,0]];fillColor=none;strokeWidth=2;movable=0;resizable=0;rotatable=0;deletable=0;editable=0;locked=1;connectable=0;" vertex="1" parent="2">
          <mxGeometry x="555" y="250" width="60" height="10" as="geometry" />
        </mxCell>
        <mxCell id="58" value="" style="edgeStyle=elbowEdgeStyle;orthogonalLoop=1;jettySize=auto;html=1;rounded=0;endArrow=none;startFill=0;jumpStyle=arc;elbow=vertical;entryX=1;entryY=0.5;entryDx=0;entryDy=0;entryPerimeter=0;exitX=0;exitY=1;exitDx=0;exitDy=0;exitPerimeter=0;strokeWidth=2;movable=0;resizable=0;rotatable=0;deletable=0;editable=0;locked=1;connectable=0;" edge="1" parent="2" source="56" target="54">
          <mxGeometry width="100" relative="1" as="geometry">
            <mxPoint x="555" y="216" as="sourcePoint" />
            <mxPoint x="515" y="219" as="targetPoint" />
          </mxGeometry>
        </mxCell>
        <mxCell id="59" value="" style="edgeStyle=elbowEdgeStyle;orthogonalLoop=1;jettySize=auto;html=1;rounded=0;entryX=1;entryY=0.5;entryDx=0;entryDy=0;entryPerimeter=0;endArrow=none;startFill=0;exitX=0;exitY=1;exitDx=0;exitDy=0;exitPerimeter=0;jumpStyle=arc;elbow=vertical;strokeWidth=2;movable=0;resizable=0;rotatable=0;deletable=0;editable=0;locked=1;connectable=0;" edge="1" parent="2" source="57" target="53">
          <mxGeometry width="100" relative="1" as="geometry">
            <mxPoint x="546.8200000000002" y="255.25" as="sourcePoint" />
            <mxPoint x="546.8200000000002" y="318.25" as="targetPoint" />
          </mxGeometry>
        </mxCell>
        <mxCell id="60" value="" style="pointerEvents=1;verticalLabelPosition=middle;shadow=0;dashed=0;align=left;html=1;verticalAlign=top;shape=mxgraph.electrical.capacitors.capacitor_1;labelPosition=center;spacingBottom=0;spacingLeft=25;direction=east;spacing=0;spacingTop=10;points=[[0,0.5,0,0,0],[0.5,0,0,0,-3],[0.5,1,0,0,2],[1,0.5,0,0,0]];fillColor=none;rotation=90;strokeWidth=2;movable=0;resizable=0;rotatable=0;deletable=0;editable=0;locked=1;connectable=0;" vertex="1" parent="2">
          <mxGeometry x="875" y="230" width="60" height="20" as="geometry" />
        </mxCell>
        <mxCell id="61" value="" style="group;strokeWidth=2;movable=0;resizable=0;rotatable=0;deletable=0;editable=0;locked=1;connectable=0;" connectable="0" vertex="1" parent="2">
          <mxGeometry x="785" y="270" width="70" height="110" as="geometry" />
        </mxCell>
        <mxCell id="62" value="Q&lt;sub&gt;4&lt;/sub&gt;" style="text;html=1;align=center;verticalAlign=middle;resizable=0;points=[];autosize=1;strokeColor=none;fillColor=none;fontSize=20;fontStyle=1;rounded=0;strokeWidth=2;movable=0;rotatable=0;deletable=0;editable=0;locked=1;connectable=0;" vertex="1" parent="61">
          <mxGeometry x="-10" y="10" width="50" height="40" as="geometry" />
        </mxCell>
        <mxCell id="63" value="" style="shape=stencil(xZXbboMwDIafJrdTTu24nej6Hin1RlSaoJAe9vYLhFYlLGgjVJMQkv3jL45jHMTyphQ1IIoviG0QpRy7lzNLb2a9KZoaCut9Z2Gk2FXglcYafYCL3Ns+RKoSjLStyt4RfnPftA/LC62Ug0itmoHyoDuYkMrF4quH9ct/9dbLytu1W+EIFoz3E+9FdPtrMBmCn4MlS2HvGw8LEUJY7jyxQrN8J4rDp9EntR9HRbUPbeAH4S7LqvJNMLGpWrTtMRJu8lGfIXboazxVrxuhkuqBQF5nIIZJBAj6P1kEtSDZ37MIECw9C8aTs+Dr5CxWM04kbC2anMWcvuCLI9LPdM5fxhdHZJOIbkxFJom7yGIzqAsbDbHO6y+/zvEN);whiteSpace=wrap;html=1;strokeWidth=2;movable=0;resizable=0;rotatable=0;deletable=0;editable=0;locked=1;connectable=0;" vertex="1" parent="61">
          <mxGeometry x="5" y="27.25" width="40" height="80" as="geometry" />
        </mxCell>
        <mxCell id="64" value="" style="ellipse;whiteSpace=wrap;html=1;fillColor=none;strokeWidth=2;strokeColor=default;container=0;movable=0;resizable=0;rotatable=0;deletable=0;editable=0;locked=1;connectable=0;" vertex="1" parent="61">
          <mxGeometry x="11" y="40" width="57" height="57" as="geometry" />
        </mxCell>
        <mxCell id="65" value="" style="shape=stencil(rZRNbsMgEIVPw7bC4GZf0fYexJnEKAQsoEl7+2CPLYU4Rv7pxtK8Jz5mHmDCha9lA4TRmvBPwhij8RPLG5ZlX0rfQBVQu0qn5F4DOj44e4abOoSeoEwNToXW5V+EfpAWSQkXlTUmQpQ1PnEe/AiTysS19Bdh/fZ/ffX2jnUTd7hAAId6gSph37PBxRYwF1GZGoeLvazOJ2d/zOFlO41soxoZg32xV3jo8ykBmht1QGhlphFsBYKniGIWotLWQ+ZYoj6KolMn8uPiaB1kgj0qrfE6ZnZdlP6asbPhz0OkTbBdgiiXN/FE2H4BthNWIcr/RhS75cex6i2kXZRLEK8fyuBN3vdu2ejBdCr+8jvhDg==);html=1;verticalAlign=top;align=left;spacingTop=10;spacing=0;spacingLeft=25;fillColor=none;flipV=1;rotation=-90;aspect=fixed;strokeWidth=2;container=0;movable=0;resizable=0;rotatable=0;deletable=0;editable=0;locked=1;connectable=0;" vertex="1" parent="61">
          <mxGeometry x="45" y="63.25" width="20" height="10" as="geometry" />
        </mxCell>
        <mxCell id="66" value="" style="edgeStyle=orthogonalEdgeStyle;orthogonalLoop=1;jettySize=auto;html=1;rounded=0;endArrow=none;startFill=0;entryX=1;entryY=0.5;entryDx=0;entryDy=0;strokeWidth=2;movable=0;resizable=0;rotatable=0;deletable=0;editable=0;locked=1;connectable=0;" edge="1" parent="61" source="67">
          <mxGeometry width="100" relative="1" as="geometry">
            <mxPoint x="45" y="54" as="sourcePoint" />
            <mxPoint x="55" y="63" as="targetPoint" />
          </mxGeometry>
        </mxCell>
        <mxCell id="67" value="" style="shape=waypoint;sketch=0;fillStyle=solid;size=6;pointerEvents=1;points=[];fillColor=none;resizable=0;rotatable=0;perimeter=centerPerimeter;snapToPoint=1;strokeColor=default;strokeWidth=1;container=0;movable=0;deletable=0;editable=0;locked=1;connectable=0;" vertex="1" parent="61">
          <mxGeometry x="35" y="37.25" width="20" height="20" as="geometry" />
        </mxCell>
        <mxCell id="68" value="" style="edgeStyle=orthogonalEdgeStyle;orthogonalLoop=1;jettySize=auto;html=1;rounded=0;exitX=0;exitY=0.5;exitDx=0;exitDy=0;endArrow=none;startFill=0;strokeWidth=2;movable=0;resizable=0;rotatable=0;deletable=0;editable=0;locked=1;connectable=0;" edge="1" parent="61" target="69">
          <mxGeometry width="100" relative="1" as="geometry">
            <mxPoint x="55" y="78" as="sourcePoint" />
            <mxPoint x="55" y="99" as="targetPoint" />
            <Array as="points">
              <mxPoint x="55" y="88" />
            </Array>
          </mxGeometry>
        </mxCell>
        <mxCell id="69" value="" style="shape=waypoint;sketch=0;fillStyle=solid;size=6;pointerEvents=1;points=[];fillColor=none;resizable=0;rotatable=0;perimeter=centerPerimeter;snapToPoint=1;strokeColor=default;strokeWidth=1;container=0;movable=0;deletable=0;editable=0;locked=1;connectable=0;" vertex="1" parent="61">
          <mxGeometry x="35" y="78" width="20" height="20" as="geometry" />
        </mxCell>
        <mxCell id="70" value="" style="edgeStyle=orthogonalEdgeStyle;orthogonalLoop=1;jettySize=auto;html=1;rounded=0;entryX=0.5;entryY=0.5;entryDx=0;entryDy=0;entryPerimeter=0;endArrow=block;endFill=0;strokeWidth=2;movable=0;resizable=0;rotatable=0;deletable=0;editable=0;locked=1;connectable=0;" edge="1" parent="61" source="69">
          <mxGeometry width="100" relative="1" as="geometry">
            <mxPoint x="-45" y="99" as="sourcePoint" />
            <mxPoint x="25" y="68" as="targetPoint" />
            <Array as="points">
              <mxPoint x="45" y="68" />
            </Array>
          </mxGeometry>
        </mxCell>
        <mxCell id="71" value="" style="group;strokeWidth=2;movable=0;resizable=0;rotatable=0;deletable=0;editable=0;locked=1;connectable=0;" connectable="0" vertex="1" parent="2">
          <mxGeometry x="785" y="70" width="70" height="110" as="geometry" />
        </mxCell>
        <mxCell id="72" value="Q&lt;sub&gt;3&lt;/sub&gt;" style="text;html=1;align=center;verticalAlign=middle;resizable=0;points=[];autosize=1;strokeColor=none;fillColor=none;fontSize=20;fontStyle=1;rounded=0;movable=0;rotatable=0;deletable=0;editable=0;locked=1;connectable=0;" vertex="1" parent="71">
          <mxGeometry x="-10" y="10" width="50" height="40" as="geometry" />
        </mxCell>
        <mxCell id="73" value="" style="shape=stencil(xZXbboMwDIafJrdTTu24nej6Hin1RlSaoJAe9vYLhFYlLGgjVJMQkv3jL45jHMTyphQ1IIoviG0QpRy7lzNLb2a9KZoaCut9Z2Gk2FXglcYafYCL3Ns+RKoSjLStyt4RfnPftA/LC62Ug0itmoHyoDuYkMrF4quH9ct/9dbLytu1W+EIFoz3E+9FdPtrMBmCn4MlS2HvGw8LEUJY7jyxQrN8J4rDp9EntR9HRbUPbeAH4S7LqvJNMLGpWrTtMRJu8lGfIXboazxVrxuhkuqBQF5nIIZJBAj6P1kEtSDZ37MIECw9C8aTs+Dr5CxWM04kbC2anMWcvuCLI9LPdM5fxhdHZJOIbkxFJom7yGIzqAsbDbHO6y+/zvEN);whiteSpace=wrap;html=1;strokeWidth=2;movable=0;resizable=0;rotatable=0;deletable=0;editable=0;locked=1;connectable=0;" vertex="1" parent="71">
          <mxGeometry x="5" y="27.25" width="40" height="80" as="geometry" />
        </mxCell>
        <mxCell id="74" value="" style="ellipse;whiteSpace=wrap;html=1;fillColor=none;strokeWidth=2;strokeColor=default;container=0;movable=0;resizable=0;rotatable=0;deletable=0;editable=0;locked=1;connectable=0;" vertex="1" parent="71">
          <mxGeometry x="11" y="40" width="57" height="57" as="geometry" />
        </mxCell>
        <mxCell id="75" value="" style="shape=stencil(rZRNbsMgEIVPw7bC4GZf0fYexJnEKAQsoEl7+2CPLYU4Rv7pxtK8Jz5mHmDCha9lA4TRmvBPwhij8RPLG5ZlX0rfQBVQu0qn5F4DOj44e4abOoSeoEwNToXW5V+EfpAWSQkXlTUmQpQ1PnEe/AiTysS19Bdh/fZ/ffX2jnUTd7hAAId6gSph37PBxRYwF1GZGoeLvazOJ2d/zOFlO41soxoZg32xV3jo8ykBmht1QGhlphFsBYKniGIWotLWQ+ZYoj6KolMn8uPiaB1kgj0qrfE6ZnZdlP6asbPhz0OkTbBdgiiXN/FE2H4BthNWIcr/RhS75cex6i2kXZRLEK8fyuBN3vdu2ejBdCr+8jvhDg==);html=1;verticalAlign=top;align=left;spacingTop=10;spacing=0;spacingLeft=25;fillColor=none;flipV=1;rotation=-90;aspect=fixed;strokeWidth=2;container=0;movable=0;resizable=0;rotatable=0;deletable=0;editable=0;locked=1;connectable=0;" vertex="1" parent="71">
          <mxGeometry x="45" y="63.25" width="20" height="10" as="geometry" />
        </mxCell>
        <mxCell id="76" value="" style="edgeStyle=orthogonalEdgeStyle;orthogonalLoop=1;jettySize=auto;html=1;rounded=0;endArrow=none;startFill=0;entryX=1;entryY=0.5;entryDx=0;entryDy=0;strokeWidth=2;movable=0;resizable=0;rotatable=0;deletable=0;editable=0;locked=1;connectable=0;" edge="1" parent="71" source="77">
          <mxGeometry width="100" relative="1" as="geometry">
            <mxPoint x="45" y="54" as="sourcePoint" />
            <mxPoint x="55" y="63" as="targetPoint" />
          </mxGeometry>
        </mxCell>
        <mxCell id="77" value="" style="shape=waypoint;sketch=0;fillStyle=solid;size=6;pointerEvents=1;points=[];fillColor=none;resizable=0;rotatable=0;perimeter=centerPerimeter;snapToPoint=1;strokeColor=default;strokeWidth=1;container=0;movable=0;deletable=0;editable=0;locked=1;connectable=0;" vertex="1" parent="71">
          <mxGeometry x="35" y="37.25" width="20" height="20" as="geometry" />
        </mxCell>
        <mxCell id="78" value="" style="edgeStyle=orthogonalEdgeStyle;orthogonalLoop=1;jettySize=auto;html=1;rounded=0;exitX=0;exitY=0.5;exitDx=0;exitDy=0;endArrow=none;startFill=0;strokeWidth=2;movable=0;resizable=0;rotatable=0;deletable=0;editable=0;locked=1;connectable=0;" edge="1" parent="71" target="79">
          <mxGeometry width="100" relative="1" as="geometry">
            <mxPoint x="55" y="78" as="sourcePoint" />
            <mxPoint x="55" y="99" as="targetPoint" />
            <Array as="points">
              <mxPoint x="55" y="88" />
            </Array>
          </mxGeometry>
        </mxCell>
        <mxCell id="79" value="" style="shape=waypoint;sketch=0;fillStyle=solid;size=6;pointerEvents=1;points=[];fillColor=none;resizable=0;rotatable=0;perimeter=centerPerimeter;snapToPoint=1;strokeColor=default;strokeWidth=1;container=0;movable=0;deletable=0;editable=0;locked=1;connectable=0;" vertex="1" parent="71">
          <mxGeometry x="35" y="78" width="20" height="20" as="geometry" />
        </mxCell>
        <mxCell id="80" value="" style="edgeStyle=orthogonalEdgeStyle;orthogonalLoop=1;jettySize=auto;html=1;rounded=0;entryX=0.5;entryY=0.5;entryDx=0;entryDy=0;entryPerimeter=0;endArrow=block;endFill=0;strokeWidth=2;movable=0;resizable=0;rotatable=0;deletable=0;editable=0;locked=1;connectable=0;" edge="1" parent="71" source="79">
          <mxGeometry width="100" relative="1" as="geometry">
            <mxPoint x="-45" y="99" as="sourcePoint" />
            <mxPoint x="25" y="68" as="targetPoint" />
            <Array as="points">
              <mxPoint x="45" y="68" />
            </Array>
          </mxGeometry>
        </mxCell>
        <mxCell id="81" value="" style="group;strokeWidth=2;movable=0;resizable=0;rotatable=0;deletable=0;editable=0;locked=1;connectable=0;" connectable="0" vertex="1" parent="2">
          <mxGeometry x="179" y="350" width="63" height="80" as="geometry" />
        </mxCell>
        <mxCell id="82" value="" style="ellipse;whiteSpace=wrap;html=1;fillColor=light-dark(#99C3B7,#99C3B7);strokeWidth=2;strokeColor=default;container=0;movable=0;resizable=0;rotatable=0;deletable=0;editable=0;locked=1;connectable=0;" vertex="1" parent="81">
          <mxGeometry x="6" y="12.75" width="57" height="57" as="geometry" />
        </mxCell>
        <mxCell id="83" value="" style="shape=stencil(rZRNbsMgEIVPw7bC4GZf0fYexJnEKAQsoEl7+2CPLYU4Rv7pxtK8Jz5mHmDCha9lA4TRmvBPwhij8RPLG5ZlX0rfQBVQu0qn5F4DOj44e4abOoSeoEwNToXW5V+EfpAWSQkXlTUmQpQ1PnEe/AiTysS19Bdh/fZ/ffX2jnUTd7hAAId6gSph37PBxRYwF1GZGoeLvazOJ2d/zOFlO41soxoZg32xV3jo8ykBmht1QGhlphFsBYKniGIWotLWQ+ZYoj6KolMn8uPiaB1kgj0qrfE6ZnZdlP6asbPhz0OkTbBdgiiXN/FE2H4BthNWIcr/RhS75cex6i2kXZRLEK8fyuBN3vdu2ejBdCr+8jvhDg==);html=1;verticalAlign=top;align=left;spacingTop=10;spacing=0;spacingLeft=25;fillColor=none;flipV=1;rotation=-90;aspect=fixed;strokeWidth=2;container=0;movable=0;resizable=0;rotatable=0;deletable=0;editable=0;locked=1;connectable=0;" vertex="1" parent="81">
          <mxGeometry x="40" y="36" width="20" height="10" as="geometry" />
        </mxCell>
        <mxCell id="84" value="" style="edgeStyle=orthogonalEdgeStyle;orthogonalLoop=1;jettySize=auto;html=1;rounded=0;endArrow=none;startFill=0;entryX=1;entryY=0.5;entryDx=0;entryDy=0;strokeWidth=2;movable=0;resizable=0;rotatable=0;deletable=0;editable=0;locked=1;connectable=0;" edge="1" parent="81" source="85">
          <mxGeometry width="100" relative="1" as="geometry">
            <mxPoint x="40" y="26.75" as="sourcePoint" />
            <mxPoint x="50" y="35.75" as="targetPoint" />
          </mxGeometry>
        </mxCell>
        <mxCell id="85" value="" style="shape=waypoint;sketch=0;fillStyle=solid;size=6;pointerEvents=1;points=[];fillColor=none;resizable=0;rotatable=0;perimeter=centerPerimeter;snapToPoint=1;strokeColor=default;strokeWidth=1;container=0;movable=0;deletable=0;editable=0;locked=1;connectable=0;" vertex="1" parent="81">
          <mxGeometry x="30" y="10" width="20" height="20" as="geometry" />
        </mxCell>
        <mxCell id="86" value="" style="edgeStyle=orthogonalEdgeStyle;orthogonalLoop=1;jettySize=auto;html=1;rounded=0;exitX=0;exitY=0.5;exitDx=0;exitDy=0;endArrow=none;startFill=0;strokeWidth=2;movable=0;resizable=0;rotatable=0;deletable=0;editable=0;locked=1;connectable=0;" edge="1" parent="81" target="87">
          <mxGeometry width="100" relative="1" as="geometry">
            <mxPoint x="50" y="50.75" as="sourcePoint" />
            <mxPoint x="50" y="71.75" as="targetPoint" />
            <Array as="points">
              <mxPoint x="50" y="60.75" />
            </Array>
          </mxGeometry>
        </mxCell>
        <mxCell id="87" value="" style="shape=waypoint;sketch=0;fillStyle=solid;size=6;pointerEvents=1;points=[];fillColor=none;resizable=0;rotatable=0;perimeter=centerPerimeter;snapToPoint=1;strokeColor=default;strokeWidth=1;container=0;movable=0;deletable=0;editable=0;locked=1;connectable=0;" vertex="1" parent="81">
          <mxGeometry x="30" y="50.75" width="20" height="20" as="geometry" />
        </mxCell>
        <mxCell id="88" value="" style="edgeStyle=orthogonalEdgeStyle;orthogonalLoop=1;jettySize=auto;html=1;rounded=0;entryX=0.5;entryY=0.5;entryDx=0;entryDy=0;entryPerimeter=0;endArrow=block;endFill=0;strokeWidth=2;movable=0;resizable=0;rotatable=0;deletable=0;editable=0;locked=1;connectable=0;" edge="1" parent="81" source="87">
          <mxGeometry width="100" relative="1" as="geometry">
            <mxPoint x="-50" y="71.75" as="sourcePoint" />
            <mxPoint x="20" y="40.75" as="targetPoint" />
            <Array as="points">
              <mxPoint x="40" y="40.75" />
            </Array>
          </mxGeometry>
        </mxCell>
        <mxCell id="89" value="" style="shape=stencil(xZXbboMwDIafJrdTTu24nej6Hin1RlSaoJAe9vYLhFYlLGgjVJMQkv3jL45jHMTyphQ1IIoviG0QpRy7lzNLb2a9KZoaCut9Z2Gk2FXglcYafYCL3Ns+RKoSjLStyt4RfnPftA/LC62Ug0itmoHyoDuYkMrF4quH9ct/9dbLytu1W+EIFoz3E+9FdPtrMBmCn4MlS2HvGw8LEUJY7jyxQrN8J4rDp9EntR9HRbUPbeAH4S7LqvJNMLGpWrTtMRJu8lGfIXboazxVrxuhkuqBQF5nIIZJBAj6P1kEtSDZ37MIECw9C8aTs+Dr5CxWM04kbC2anMWcvuCLI9LPdM5fxhdHZJOIbkxFJom7yGIzqAsbDbHO6y+/zvEN);whiteSpace=wrap;html=1;strokeWidth=2;movable=0;resizable=0;rotatable=0;deletable=0;editable=0;locked=1;connectable=0;fillColor=none;" vertex="1" parent="81">
          <mxGeometry width="40" height="80" as="geometry" />
        </mxCell>
        <mxCell id="90" value="" style="edgeStyle=elbowEdgeStyle;orthogonalLoop=1;jettySize=auto;html=1;rounded=0;exitX=1;exitY=0.5;exitDx=0;exitDy=0;entryX=1;entryY=0;entryDx=0;entryDy=0;endArrow=none;startFill=0;elbow=vertical;exitPerimeter=0;strokeWidth=2;movable=0;resizable=0;rotatable=0;deletable=0;editable=0;locked=1;connectable=0;" edge="1" parent="2" source="27" target="89">
          <mxGeometry width="100" relative="1" as="geometry">
            <mxPoint x="229" y="440" as="sourcePoint" />
            <mxPoint x="259" y="439.75" as="targetPoint" />
          </mxGeometry>
        </mxCell>
        <mxCell id="91" value="" style="edgeStyle=elbowEdgeStyle;orthogonalLoop=1;jettySize=auto;html=1;rounded=0;entryX=0.091;entryY=0.615;entryDx=0;entryDy=0;entryPerimeter=0;endArrow=none;startFill=0;jumpStyle=arc;exitX=1;exitY=0.5;exitDx=0;exitDy=0;strokeWidth=2;movable=0;resizable=0;rotatable=0;deletable=0;editable=0;locked=1;connectable=0;" edge="1" parent="2" source="19" target="38">
          <mxGeometry width="100" relative="1" as="geometry">
            <mxPoint x="154" y="259" as="sourcePoint" />
            <mxPoint x="218" y="257.88" as="targetPoint" />
          </mxGeometry>
        </mxCell>
        <mxCell id="92" value="" style="edgeStyle=elbowEdgeStyle;orthogonalLoop=1;jettySize=auto;html=1;rounded=0;entryDx=0;entryDy=0;entryPerimeter=0;endArrow=none;startFill=0;exitX=1;exitY=0.5;exitDx=0;exitDy=0;jumpStyle=arc;strokeWidth=2;movable=0;resizable=0;rotatable=0;deletable=0;editable=0;locked=1;connectable=0;" edge="1" parent="2" source="18" target="93">
          <mxGeometry width="100" relative="1" as="geometry">
            <mxPoint x="110" y="217" as="sourcePoint" />
            <mxPoint x="245" y="217" as="targetPoint" />
          </mxGeometry>
        </mxCell>
        <mxCell id="93" value="" style="shape=waypoint;sketch=0;fillStyle=solid;size=6;pointerEvents=1;points=[];fillColor=none;resizable=0;rotatable=0;perimeter=centerPerimeter;snapToPoint=1;strokeWidth=2;movable=0;deletable=0;editable=0;locked=1;connectable=0;" vertex="1" parent="2">
          <mxGeometry x="144" y="206.75" width="20" height="20" as="geometry" />
        </mxCell>
        <mxCell id="94" value="Q&lt;sub&gt;6&lt;/sub&gt;" style="text;html=1;align=center;verticalAlign=middle;resizable=0;points=[];autosize=1;strokeColor=none;fillColor=none;fontSize=20;fontStyle=1;rounded=0;strokeWidth=2;movable=0;rotatable=0;deletable=0;editable=0;locked=1;connectable=0;" vertex="1" parent="2">
          <mxGeometry x="354" y="322.5" width="50" height="40" as="geometry" />
        </mxCell>
        <mxCell id="95" value="" style="pointerEvents=1;verticalLabelPosition=middle;shadow=0;dashed=0;align=left;html=1;verticalAlign=top;shape=mxgraph.electrical.capacitors.capacitor_2;spacing=0;labelPosition=center;spacingTop=10;spacingLeft=25;fillColor=none;rotation=90;strokeWidth=2;movable=0;resizable=0;rotatable=0;deletable=0;editable=0;locked=1;connectable=0;" vertex="1" parent="2">
          <mxGeometry x="369" y="299.75" width="60" height="20" as="geometry" />
        </mxCell>
        <mxCell id="96" value="" style="pointerEvents=1;verticalLabelPosition=middle;shadow=0;dashed=0;align=left;html=1;verticalAlign=top;shape=mxgraph.electrical.capacitors.capacitor_1;labelPosition=center;spacingBottom=0;spacingLeft=25;direction=east;spacing=0;spacingTop=10;points=[[0,0.5,0,0,0],[0.5,0,0,0,-3],[0.5,1,0,0,2],[1,0.5,0,0,0]];fillColor=none;rotation=90;strokeWidth=2;movable=0;resizable=0;rotatable=0;deletable=0;editable=0;locked=1;connectable=0;" vertex="1" parent="2">
          <mxGeometry x="429" y="301.5" width="60" height="20" as="geometry" />
        </mxCell>
        <mxCell id="97" value="" style="shape=waypoint;sketch=0;fillStyle=solid;size=6;pointerEvents=1;points=[];fillColor=none;resizable=0;rotatable=0;perimeter=centerPerimeter;snapToPoint=1;strokeWidth=2;movable=0;deletable=0;editable=0;locked=1;connectable=0;" vertex="1" parent="2">
          <mxGeometry x="415" y="419.5" width="20" height="20" as="geometry" />
        </mxCell>
        <mxCell id="98" value="" style="edgeStyle=orthogonalEdgeStyle;orthogonalLoop=1;jettySize=auto;html=1;rounded=0;exitX=1;exitY=0.5;exitDx=0;exitDy=0;exitPerimeter=0;entryX=0.667;entryY=0.587;entryDx=0;entryDy=0;entryPerimeter=0;endArrow=none;startFill=0;strokeWidth=2;movable=0;resizable=0;rotatable=0;deletable=0;editable=0;locked=1;connectable=0;" edge="1" parent="2" source="96" target="97">
          <mxGeometry width="100" relative="1" as="geometry">
            <mxPoint x="419" y="389.75" as="sourcePoint" />
            <mxPoint x="435" y="429.5" as="targetPoint" />
            <Array as="points">
              <mxPoint x="459" y="430" />
            </Array>
          </mxGeometry>
        </mxCell>
        <mxCell id="99" value="" style="edgeStyle=elbowEdgeStyle;orthogonalLoop=1;jettySize=auto;html=1;rounded=0;exitX=1;exitY=1;exitDx=0;exitDy=0;entryX=0.5;entryY=0.512;entryDx=0;entryDy=0;entryPerimeter=0;endArrow=none;startFill=0;elbow=vertical;strokeWidth=2;movable=0;resizable=0;rotatable=0;deletable=0;editable=0;locked=1;connectable=0;" edge="1" parent="2" source="105">
          <mxGeometry width="100" relative="1" as="geometry">
            <mxPoint x="393" y="399.75" as="sourcePoint" />
            <mxPoint x="429" y="429.5" as="targetPoint" />
          </mxGeometry>
        </mxCell>
        <mxCell id="100" value="" style="edgeStyle=orthogonalEdgeStyle;orthogonalLoop=1;jettySize=auto;html=1;rounded=0;exitDx=0;exitDy=0;exitPerimeter=0;entryX=0.566;entryY=0.596;entryDx=0;entryDy=0;entryPerimeter=0;elbow=vertical;endArrow=none;startFill=0;strokeWidth=2;movable=0;resizable=0;rotatable=0;deletable=0;editable=0;locked=1;connectable=0;" edge="1" parent="2" source="117">
          <mxGeometry width="100" relative="1" as="geometry">
            <mxPoint x="389" y="269.75" as="sourcePoint" />
            <mxPoint x="425" y="280" as="targetPoint" />
            <Array as="points">
              <mxPoint x="399" y="279.75" />
              <mxPoint x="425" y="279.75" />
            </Array>
          </mxGeometry>
        </mxCell>
        <mxCell id="101" value="" style="edgeStyle=orthogonalEdgeStyle;orthogonalLoop=1;jettySize=auto;html=1;rounded=0;exitX=0;exitY=0.5;exitDx=0;exitDy=0;exitPerimeter=0;entryX=0.656;entryY=0.596;entryDx=0;entryDy=0;entryPerimeter=0;elbow=vertical;endArrow=none;startFill=0;strokeWidth=2;movable=0;resizable=0;rotatable=0;deletable=0;editable=0;locked=1;connectable=0;" edge="1" parent="2" source="96" target="117">
          <mxGeometry width="100" relative="1" as="geometry">
            <mxPoint x="439" y="273.5" as="sourcePoint" />
            <mxPoint x="435" y="280.25" as="targetPoint" />
            <Array as="points">
              <mxPoint x="459" y="280" />
            </Array>
          </mxGeometry>
        </mxCell>
        <mxCell id="102" value="" style="edgeStyle=elbowEdgeStyle;orthogonalLoop=1;jettySize=auto;html=1;rounded=0;endArrow=none;startFill=0;exitX=0.532;exitY=1.003;exitDx=0;exitDy=0;exitPerimeter=0;jumpStyle=arc;entryX=0.631;entryY=0.447;entryDx=0;entryDy=0;entryPerimeter=0;strokeWidth=2;movable=0;resizable=0;rotatable=0;deletable=0;editable=0;locked=1;connectable=0;" edge="1" parent="2" source="97" target="103">
          <mxGeometry width="100" relative="1" as="geometry">
            <mxPoint x="522" y="288.75" as="sourcePoint" />
            <mxPoint x="449" y="439.75" as="targetPoint" />
          </mxGeometry>
        </mxCell>
        <mxCell id="103" value="" style="shape=waypoint;sketch=0;fillStyle=solid;size=6;pointerEvents=1;points=[];fillColor=none;resizable=0;rotatable=0;perimeter=centerPerimeter;snapToPoint=1;strokeWidth=2;movable=0;deletable=0;editable=0;locked=1;connectable=0;" vertex="1" parent="2">
          <mxGeometry x="415" y="439.5" width="20" height="20" as="geometry" />
        </mxCell>
        <mxCell id="104" value="" style="group;strokeWidth=2;movable=0;resizable=0;rotatable=0;deletable=0;editable=0;locked=1;connectable=0;" connectable="0" vertex="1" parent="2">
          <mxGeometry x="359" y="349.75" width="60" height="80" as="geometry" />
        </mxCell>
        <mxCell id="105" value="" style="shape=stencil(xZXbboMwDIafJrdTTu24nej6Hin1RlSaoJAe9vYLhFYlLGgjVJMQkv3jL45jHMTyphQ1IIoviG0QpRy7lzNLb2a9KZoaCut9Z2Gk2FXglcYafYCL3Ns+RKoSjLStyt4RfnPftA/LC62Ug0itmoHyoDuYkMrF4quH9ct/9dbLytu1W+EIFoz3E+9FdPtrMBmCn4MlS2HvGw8LEUJY7jyxQrN8J4rDp9EntR9HRbUPbeAH4S7LqvJNMLGpWrTtMRJu8lGfIXboazxVrxuhkuqBQF5nIIZJBAj6P1kEtSDZ37MIECw9C8aTs+Dr5CxWM04kbC2anMWcvuCLI9LPdM5fxhdHZJOIbkxFJom7yGIzqAsbDbHO6y+/zvEN);whiteSpace=wrap;html=1;strokeWidth=2;movable=0;resizable=0;rotatable=0;deletable=0;editable=0;locked=1;connectable=0;" vertex="1" parent="104">
          <mxGeometry width="40" height="80" as="geometry" />
        </mxCell>
        <mxCell id="106" value="" style="group;strokeWidth=2;movable=0;resizable=0;rotatable=0;deletable=0;editable=0;locked=1;connectable=0;" connectable="0" vertex="1" parent="104">
          <mxGeometry x="6" y="10" width="57" height="60.75" as="geometry" />
        </mxCell>
        <mxCell id="107" value="" style="ellipse;whiteSpace=wrap;html=1;fillColor=none;strokeWidth=2;strokeColor=default;container=0;movable=0;resizable=0;rotatable=0;deletable=0;editable=0;locked=1;connectable=0;" vertex="1" parent="106">
          <mxGeometry y="2.75" width="57" height="57" as="geometry" />
        </mxCell>
        <mxCell id="108" value="" style="shape=stencil(rZRNbsMgEIVPw7bC4GZf0fYexJnEKAQsoEl7+2CPLYU4Rv7pxtK8Jz5mHmDCha9lA4TRmvBPwhij8RPLG5ZlX0rfQBVQu0qn5F4DOj44e4abOoSeoEwNToXW5V+EfpAWSQkXlTUmQpQ1PnEe/AiTysS19Bdh/fZ/ffX2jnUTd7hAAId6gSph37PBxRYwF1GZGoeLvazOJ2d/zOFlO41soxoZg32xV3jo8ykBmht1QGhlphFsBYKniGIWotLWQ+ZYoj6KolMn8uPiaB1kgj0qrfE6ZnZdlP6asbPhz0OkTbBdgiiXN/FE2H4BthNWIcr/RhS75cex6i2kXZRLEK8fyuBN3vdu2ejBdCr+8jvhDg==);html=1;verticalAlign=top;align=left;spacingTop=10;spacing=0;spacingLeft=25;fillColor=none;flipV=1;rotation=-90;aspect=fixed;strokeWidth=2;container=0;movable=0;resizable=0;rotatable=0;deletable=0;editable=0;locked=1;connectable=0;" vertex="1" parent="106">
          <mxGeometry x="34" y="26" width="20" height="10" as="geometry" />
        </mxCell>
        <mxCell id="109" value="" style="edgeStyle=orthogonalEdgeStyle;orthogonalLoop=1;jettySize=auto;html=1;rounded=0;endArrow=none;startFill=0;entryX=1;entryY=0.5;entryDx=0;entryDy=0;strokeWidth=2;movable=0;resizable=0;rotatable=0;deletable=0;editable=0;locked=1;connectable=0;" edge="1" parent="106" source="110">
          <mxGeometry width="100" relative="1" as="geometry">
            <mxPoint x="34" y="16.75" as="sourcePoint" />
            <mxPoint x="44" y="25.75" as="targetPoint" />
          </mxGeometry>
        </mxCell>
        <mxCell id="110" value="" style="shape=waypoint;sketch=0;fillStyle=solid;size=6;pointerEvents=1;points=[];fillColor=none;resizable=0;rotatable=0;perimeter=centerPerimeter;snapToPoint=1;strokeColor=default;strokeWidth=1;container=0;movable=0;deletable=0;editable=0;locked=1;connectable=0;" vertex="1" parent="106">
          <mxGeometry x="24" width="20" height="20" as="geometry" />
        </mxCell>
        <mxCell id="111" value="" style="edgeStyle=orthogonalEdgeStyle;orthogonalLoop=1;jettySize=auto;html=1;rounded=0;exitX=0;exitY=0.5;exitDx=0;exitDy=0;endArrow=none;startFill=0;strokeWidth=2;movable=0;resizable=0;rotatable=0;deletable=0;editable=0;locked=1;connectable=0;" edge="1" parent="106" target="112">
          <mxGeometry width="100" relative="1" as="geometry">
            <mxPoint x="44" y="40.75" as="sourcePoint" />
            <mxPoint x="44" y="61.75" as="targetPoint" />
            <Array as="points">
              <mxPoint x="44" y="50.75" />
            </Array>
          </mxGeometry>
        </mxCell>
        <mxCell id="112" value="" style="shape=waypoint;sketch=0;fillStyle=solid;size=6;pointerEvents=1;points=[];fillColor=none;resizable=0;rotatable=0;perimeter=centerPerimeter;snapToPoint=1;strokeColor=default;strokeWidth=1;container=0;movable=0;deletable=0;editable=0;locked=1;connectable=0;" vertex="1" parent="106">
          <mxGeometry x="24" y="40.75" width="20" height="20" as="geometry" />
        </mxCell>
        <mxCell id="113" value="" style="edgeStyle=orthogonalEdgeStyle;orthogonalLoop=1;jettySize=auto;html=1;rounded=0;entryX=0.5;entryY=0.5;entryDx=0;entryDy=0;entryPerimeter=0;endArrow=block;endFill=0;strokeWidth=2;movable=0;resizable=0;rotatable=0;deletable=0;editable=0;locked=1;connectable=0;" edge="1" parent="106" source="112">
          <mxGeometry width="100" relative="1" as="geometry">
            <mxPoint x="-56" y="61.75" as="sourcePoint" />
            <mxPoint x="14" y="30.75" as="targetPoint" />
            <Array as="points">
              <mxPoint x="34" y="30.75" />
            </Array>
          </mxGeometry>
        </mxCell>
        <mxCell id="114" value="" style="edgeStyle=elbowEdgeStyle;orthogonalLoop=1;jettySize=auto;html=1;rounded=0;exitX=1;exitY=0.5;exitDx=0;exitDy=0;entryX=1;entryY=0;entryDx=0;entryDy=0;endArrow=none;startFill=0;elbow=vertical;exitPerimeter=0;strokeWidth=2;movable=0;resizable=0;rotatable=0;deletable=0;editable=0;locked=1;connectable=0;" edge="1" parent="2" source="95" target="105">
          <mxGeometry width="100" relative="1" as="geometry">
            <mxPoint x="409" y="439.75" as="sourcePoint" />
            <mxPoint x="439" y="439.5" as="targetPoint" />
          </mxGeometry>
        </mxCell>
        <mxCell id="115" value="" style="edgeStyle=elbowEdgeStyle;orthogonalLoop=1;jettySize=auto;html=1;rounded=0;entryX=0.512;entryY=0.69;entryDx=0;entryDy=0;entryPerimeter=0;endArrow=none;startFill=0;exitDx=0;exitDy=0;jumpStyle=arc;exitX=0.515;exitY=0.641;exitPerimeter=0;strokeWidth=2;movable=0;resizable=0;rotatable=0;deletable=0;editable=0;locked=1;connectable=0;" edge="1" parent="2" source="40" target="103">
          <mxGeometry width="100" relative="1" as="geometry">
            <mxPoint x="384.5" y="490" as="sourcePoint" />
            <mxPoint x="475.5" y="490" as="targetPoint" />
          </mxGeometry>
        </mxCell>
        <mxCell id="116" value="" style="edgeStyle=orthogonalEdgeStyle;orthogonalLoop=1;jettySize=auto;html=1;rounded=0;exitX=0;exitY=0.5;exitDx=0;exitDy=0;exitPerimeter=0;entryDx=0;entryDy=0;entryPerimeter=0;elbow=vertical;endArrow=none;startFill=0;strokeWidth=2;movable=0;resizable=0;rotatable=0;deletable=0;editable=0;locked=1;connectable=0;" edge="1" parent="2" source="95" target="117">
          <mxGeometry width="100" relative="1" as="geometry">
            <mxPoint x="399" y="280" as="sourcePoint" />
            <mxPoint x="425" y="280" as="targetPoint" />
            <Array as="points" />
          </mxGeometry>
        </mxCell>
        <mxCell id="117" value="" style="shape=waypoint;sketch=0;fillStyle=solid;size=6;pointerEvents=1;points=[];fillColor=none;resizable=0;rotatable=0;perimeter=centerPerimeter;snapToPoint=1;strokeWidth=2;movable=0;deletable=0;editable=0;locked=1;connectable=0;" vertex="1" parent="2">
          <mxGeometry x="415" y="270.25" width="20" height="20" as="geometry" />
        </mxCell>
        <mxCell id="118" value="" style="edgeStyle=elbowEdgeStyle;orthogonalLoop=1;jettySize=auto;html=1;rounded=0;endArrow=none;startFill=0;exitDx=0;exitDy=0;jumpStyle=arc;exitX=0.412;exitY=0.138;exitPerimeter=0;strokeWidth=2;movable=0;resizable=0;rotatable=0;deletable=0;editable=0;locked=1;connectable=0;" edge="1" parent="2" source="117" target="119">
          <mxGeometry width="100" relative="1" as="geometry">
            <mxPoint x="346" y="460" as="sourcePoint" />
            <mxPoint x="435" y="459" as="targetPoint" />
          </mxGeometry>
        </mxCell>
        <mxCell id="119" value="" style="shape=waypoint;sketch=0;fillStyle=solid;size=6;pointerEvents=1;points=[];fillColor=none;resizable=0;rotatable=0;perimeter=centerPerimeter;snapToPoint=1;strokeWidth=2;movable=0;deletable=0;editable=0;locked=1;connectable=0;" vertex="1" parent="2">
          <mxGeometry x="415" y="248.75" width="20" height="20" as="geometry" />
        </mxCell>
        <mxCell id="120" value="" style="edgeStyle=elbowEdgeStyle;orthogonalLoop=1;jettySize=auto;html=1;rounded=0;endArrow=none;startFill=0;exitDx=0;exitDy=0;jumpStyle=arc;exitX=0.103;exitY=0.801;exitPerimeter=0;entryX=0.656;entryY=0.624;entryDx=0;entryDy=0;entryPerimeter=0;strokeWidth=2;movable=0;resizable=0;rotatable=0;deletable=0;editable=0;locked=1;connectable=0;" edge="1" parent="2" source="119" target="38">
          <mxGeometry width="100" relative="1" as="geometry">
            <mxPoint x="435" y="290" as="sourcePoint" />
            <mxPoint x="435" y="269" as="targetPoint" />
          </mxGeometry>
        </mxCell>
        <mxCell id="121" value="" style="edgeStyle=orthogonalEdgeStyle;orthogonalLoop=1;jettySize=auto;html=1;rounded=0;endArrow=none;startFill=0;jumpStyle=arc;entryX=0.662;entryY=0.548;entryDx=0;entryDy=0;entryPerimeter=0;exitX=0;exitY=0.5;exitDx=0;exitDy=0;exitPerimeter=0;strokeWidth=2;movable=0;resizable=0;rotatable=0;deletable=0;editable=0;locked=1;connectable=0;" edge="1" parent="2" source="54" target="36">
          <mxGeometry width="100" relative="1" as="geometry">
            <mxPoint x="465" y="217" as="sourcePoint" />
            <mxPoint x="445" y="279" as="targetPoint" />
          </mxGeometry>
        </mxCell>
        <mxCell id="122" value="" style="edgeStyle=elbowEdgeStyle;orthogonalLoop=1;jettySize=auto;html=1;rounded=0;endArrow=none;startFill=0;jumpStyle=arc;entryX=0.676;entryY=0.511;entryDx=0;entryDy=0;entryPerimeter=0;elbow=vertical;exitX=0;exitY=0.5;exitDx=0;exitDy=0;exitPerimeter=0;strokeWidth=2;movable=0;resizable=0;rotatable=0;deletable=0;editable=0;locked=1;connectable=0;" edge="1" parent="2">
          <mxGeometry width="100" relative="1" as="geometry">
            <mxPoint x="475" y="259" as="sourcePoint" />
            <mxPoint x="425" y="257.75" as="targetPoint" />
          </mxGeometry>
        </mxCell>
        <mxCell id="123" value="" style="shape=waypoint;sketch=0;fillStyle=solid;size=6;pointerEvents=1;points=[];fillColor=none;resizable=0;rotatable=0;perimeter=centerPerimeter;snapToPoint=1;strokeWidth=2;movable=0;deletable=0;editable=0;locked=1;connectable=0;" vertex="1" parent="2">
          <mxGeometry x="660" y="205.75" width="20" height="20" as="geometry" />
        </mxCell>
        <mxCell id="124" value="" style="shape=waypoint;sketch=0;fillStyle=solid;size=6;pointerEvents=1;points=[];fillColor=none;resizable=0;rotatable=0;perimeter=centerPerimeter;snapToPoint=1;strokeWidth=2;movable=0;deletable=0;editable=0;locked=1;connectable=0;" vertex="1" parent="2">
          <mxGeometry x="820" y="250.25" width="20" height="20" as="geometry" />
        </mxCell>
        <mxCell id="125" value="" style="edgeStyle=elbowEdgeStyle;orthogonalLoop=1;jettySize=auto;html=1;rounded=0;endArrow=none;startFill=0;jumpStyle=arc;elbow=vertical;entryX=1;entryY=1;entryDx=0;entryDy=0;entryPerimeter=0;strokeWidth=2;movable=0;resizable=0;rotatable=0;deletable=0;editable=0;locked=1;connectable=0;" edge="1" parent="2" source="123" target="56">
          <mxGeometry width="100" relative="1" as="geometry">
            <mxPoint x="660" y="226.75" as="sourcePoint" />
            <mxPoint x="624" y="226.75" as="targetPoint" />
            <Array as="points">
              <mxPoint x="645" y="216" />
            </Array>
          </mxGeometry>
        </mxCell>
        <mxCell id="126" value="" style="edgeStyle=elbowEdgeStyle;orthogonalLoop=1;jettySize=auto;html=1;rounded=0;endArrow=none;startFill=0;jumpStyle=arc;elbow=vertical;entryX=1;entryY=1;entryDx=0;entryDy=0;exitX=0.634;exitY=0.467;exitDx=0;exitDy=0;exitPerimeter=0;strokeWidth=2;movable=0;resizable=0;rotatable=0;deletable=0;editable=0;locked=1;connectable=0;" edge="1" parent="2" source="123" target="182">
          <mxGeometry width="100" relative="1" as="geometry">
            <mxPoint x="680" y="226" as="sourcePoint" />
            <mxPoint x="625" y="226" as="targetPoint" />
          </mxGeometry>
        </mxCell>
        <mxCell id="127" value="" style="edgeStyle=elbowEdgeStyle;orthogonalLoop=1;jettySize=auto;html=1;rounded=0;endArrow=none;startFill=0;jumpStyle=arc;elbow=vertical;entryX=0.607;entryY=0.423;entryDx=0;entryDy=0;exitX=1;exitY=0;exitDx=0;exitDy=0;entryPerimeter=0;strokeWidth=2;movable=0;resizable=0;rotatable=0;deletable=0;editable=0;locked=1;connectable=0;" edge="1" parent="2" source="191" target="123">
          <mxGeometry width="100" relative="1" as="geometry">
            <mxPoint x="695" y="270" as="sourcePoint" />
            <mxPoint x="680" y="194.25" as="targetPoint" />
          </mxGeometry>
        </mxCell>
        <mxCell id="128" value="" style="edgeStyle=elbowEdgeStyle;orthogonalLoop=1;jettySize=auto;html=1;rounded=0;endArrow=none;startFill=0;jumpStyle=arc;elbow=vertical;exitX=0.529;exitY=0.355;exitDx=0;exitDy=0;exitPerimeter=0;entryX=1;entryY=1;entryDx=0;entryDy=0;entryPerimeter=0;strokeWidth=2;movable=0;resizable=0;rotatable=0;deletable=0;editable=0;locked=1;connectable=0;" edge="1" parent="2" source="124" target="57">
          <mxGeometry x="0.3636" width="100" relative="1" as="geometry">
            <mxPoint x="841" y="253.5" as="sourcePoint" />
            <mxPoint x="625" y="260" as="targetPoint" />
            <Array as="points">
              <mxPoint x="705" y="260" />
            </Array>
            <mxPoint as="offset" />
          </mxGeometry>
        </mxCell>
        <mxCell id="129" value="" style="edgeStyle=elbowEdgeStyle;orthogonalLoop=1;jettySize=auto;html=1;rounded=0;endArrow=none;startFill=0;jumpStyle=arc;elbow=vertical;entryX=1;entryY=1;entryDx=0;entryDy=0;exitX=0.445;exitY=0.389;exitDx=0;exitDy=0;exitPerimeter=0;strokeWidth=2;movable=0;resizable=0;rotatable=0;deletable=0;editable=0;locked=1;connectable=0;" edge="1" parent="2" source="124" target="73">
          <mxGeometry width="100" relative="1" as="geometry">
            <mxPoint x="820" y="224.25" as="sourcePoint" />
            <mxPoint x="765" y="224.25" as="targetPoint" />
            <Array as="points">
              <mxPoint x="795" y="224.25" />
            </Array>
          </mxGeometry>
        </mxCell>
        <mxCell id="130" value="" style="edgeStyle=elbowEdgeStyle;orthogonalLoop=1;jettySize=auto;html=1;rounded=0;endArrow=none;startFill=0;jumpStyle=arc;elbow=vertical;entryX=0.91;entryY=0.682;entryDx=0;entryDy=0;exitX=1;exitY=0;exitDx=0;exitDy=0;entryPerimeter=0;strokeWidth=2;movable=0;resizable=0;rotatable=0;deletable=0;editable=0;locked=1;connectable=0;" edge="1" parent="2" source="63" target="124">
          <mxGeometry width="100" relative="1" as="geometry">
            <mxPoint x="840" y="270" as="sourcePoint" />
            <mxPoint x="840" y="187" as="targetPoint" />
            <Array as="points">
              <mxPoint x="805" y="234.25" />
            </Array>
          </mxGeometry>
        </mxCell>
        <mxCell id="131" value="" style="shape=waypoint;sketch=0;fillStyle=solid;size=6;pointerEvents=1;points=[];fillColor=none;resizable=0;rotatable=0;perimeter=centerPerimeter;snapToPoint=1;strokeWidth=2;movable=0;deletable=0;editable=0;locked=1;connectable=0;" vertex="1" parent="2">
          <mxGeometry x="660" y="440" width="20" height="20" as="geometry" />
        </mxCell>
        <mxCell id="132" value="" style="shape=waypoint;sketch=0;fillStyle=solid;size=6;pointerEvents=1;points=[];fillColor=none;resizable=0;rotatable=0;perimeter=centerPerimeter;snapToPoint=1;strokeWidth=2;movable=0;deletable=0;editable=0;locked=1;connectable=0;" vertex="1" parent="2">
          <mxGeometry x="820" y="439.5" width="20" height="20" as="geometry" />
        </mxCell>
        <mxCell id="133" value="" style="edgeStyle=elbowEdgeStyle;orthogonalLoop=1;jettySize=auto;html=1;rounded=0;endArrow=none;startFill=0;exitDx=0;exitDy=0;jumpStyle=arc;exitX=0.342;exitY=0.529;exitPerimeter=0;strokeWidth=2;movable=0;resizable=0;rotatable=0;deletable=0;editable=0;locked=1;connectable=0;" edge="1" parent="2" source="103" target="131">
          <mxGeometry width="100" relative="1" as="geometry">
            <mxPoint x="505" y="476.75" as="sourcePoint" />
            <mxPoint x="594" y="475.75" as="targetPoint" />
          </mxGeometry>
        </mxCell>
        <mxCell id="134" value="" style="edgeStyle=elbowEdgeStyle;orthogonalLoop=1;jettySize=auto;html=1;rounded=0;endArrow=none;startFill=0;exitDx=0;exitDy=0;jumpStyle=arc;exitX=1;exitY=1;strokeWidth=2;movable=0;resizable=0;rotatable=0;deletable=0;editable=0;locked=1;connectable=0;" edge="1" parent="2" source="191">
          <mxGeometry width="100" relative="1" as="geometry">
            <mxPoint x="435" y="459" as="sourcePoint" />
            <mxPoint x="670" y="450" as="targetPoint" />
          </mxGeometry>
        </mxCell>
        <mxCell id="135" value="" style="edgeStyle=elbowEdgeStyle;orthogonalLoop=1;jettySize=auto;html=1;rounded=0;endArrow=none;startFill=0;exitDx=0;exitDy=0;jumpStyle=arc;exitX=0.654;exitY=0.858;exitPerimeter=0;entryX=0.321;entryY=0.15;entryDx=0;entryDy=0;entryPerimeter=0;strokeWidth=2;movable=0;resizable=0;rotatable=0;deletable=0;editable=0;locked=1;connectable=0;" edge="1" parent="2" source="131" target="132">
          <mxGeometry width="100" relative="1" as="geometry">
            <mxPoint x="707.5" y="496.25" as="sourcePoint" />
            <mxPoint x="952.5" y="497.25" as="targetPoint" />
          </mxGeometry>
        </mxCell>
        <mxCell id="136" value="" style="edgeStyle=elbowEdgeStyle;orthogonalLoop=1;jettySize=auto;html=1;rounded=0;endArrow=none;startFill=0;exitDx=0;exitDy=0;jumpStyle=arc;exitX=1;exitY=1;entryX=0.404;entryY=0.342;entryDx=0;entryDy=0;entryPerimeter=0;strokeWidth=2;movable=0;resizable=0;rotatable=0;deletable=0;editable=0;locked=1;connectable=0;" edge="1" parent="2" source="63" target="132">
          <mxGeometry width="100" relative="1" as="geometry">
            <mxPoint x="680" y="460" as="sourcePoint" />
            <mxPoint x="840" y="459" as="targetPoint" />
          </mxGeometry>
        </mxCell>
        <mxCell id="137" value="" style="shape=waypoint;sketch=0;fillStyle=solid;size=6;pointerEvents=1;points=[];fillColor=none;resizable=0;rotatable=0;perimeter=centerPerimeter;snapToPoint=1;strokeWidth=2;movable=0;deletable=0;editable=0;locked=1;connectable=0;" vertex="1" parent="2">
          <mxGeometry x="895" y="440" width="20" height="20" as="geometry" />
        </mxCell>
        <mxCell id="138" value="" style="edgeStyle=elbowEdgeStyle;orthogonalLoop=1;jettySize=auto;html=1;rounded=0;endArrow=none;startFill=0;exitDx=0;exitDy=0;jumpStyle=arc;exitX=0.696;exitY=0.633;exitPerimeter=0;strokeWidth=2;movable=0;resizable=0;rotatable=0;deletable=0;editable=0;locked=1;connectable=0;" edge="1" parent="2" source="132">
          <mxGeometry width="100" relative="1" as="geometry">
            <mxPoint x="680" y="460" as="sourcePoint" />
            <mxPoint x="905" y="450" as="targetPoint" />
          </mxGeometry>
        </mxCell>
        <mxCell id="139" value="" style="edgeStyle=elbowEdgeStyle;orthogonalLoop=1;jettySize=auto;html=1;rounded=0;endArrow=none;startFill=0;exitDx=0;exitDy=0;jumpStyle=arc;exitX=1;exitY=0.5;exitPerimeter=0;entryX=0.404;entryY=0.15;entryDx=0;entryDy=0;entryPerimeter=0;strokeWidth=2;movable=0;resizable=0;rotatable=0;deletable=0;editable=0;locked=1;connectable=0;" edge="1" parent="2" source="60" target="137">
          <mxGeometry width="100" relative="1" as="geometry">
            <mxPoint x="840" y="459" as="sourcePoint" />
            <mxPoint x="915" y="460" as="targetPoint" />
          </mxGeometry>
        </mxCell>
        <mxCell id="140" value="" style="edgeStyle=elbowEdgeStyle;orthogonalLoop=1;jettySize=auto;html=1;rounded=0;endArrow=none;startFill=0;jumpStyle=arc;exitDx=0;exitDy=0;exitPerimeter=0;entryX=0;entryY=0.5;entryDx=0;entryDy=0;strokeWidth=2;movable=0;resizable=0;rotatable=0;deletable=0;editable=0;locked=1;connectable=0;" edge="1" parent="2" source="153" target="22">
          <mxGeometry width="100" relative="1" as="geometry">
            <mxPoint x="840" y="460" as="sourcePoint" />
            <mxPoint x="915" y="460" as="targetPoint" />
          </mxGeometry>
        </mxCell>
        <mxCell id="141" value="" style="shape=waypoint;sketch=0;fillStyle=solid;size=6;pointerEvents=1;points=[];fillColor=none;resizable=0;rotatable=0;perimeter=centerPerimeter;snapToPoint=1;strokeWidth=2;movable=0;deletable=0;editable=0;locked=1;connectable=0;" vertex="1" parent="2">
          <mxGeometry x="820" y="50" width="20" height="20" as="geometry" />
        </mxCell>
        <mxCell id="142" value="" style="edgeStyle=elbowEdgeStyle;orthogonalLoop=1;jettySize=auto;html=1;rounded=0;endArrow=none;startFill=0;jumpStyle=arc;exitX=1;exitY=0;exitDx=0;exitDy=0;entryX=0.3;entryY=0.5;entryDx=0;entryDy=0;entryPerimeter=0;strokeWidth=2;movable=0;resizable=0;rotatable=0;deletable=0;editable=0;locked=1;connectable=0;" edge="1" parent="2" source="73" target="141">
          <mxGeometry width="100" relative="1" as="geometry">
            <mxPoint x="805" y="97.25" as="sourcePoint" />
            <mxPoint x="805" y="60.25" as="targetPoint" />
          </mxGeometry>
        </mxCell>
        <mxCell id="143" value="" style="edgeStyle=elbowEdgeStyle;orthogonalLoop=1;jettySize=auto;html=1;rounded=0;endArrow=none;startFill=0;jumpStyle=arc;exitX=0.12;exitY=0.46;exitDx=0;exitDy=0;entryX=0.66;entryY=0.52;entryDx=0;entryDy=0;entryPerimeter=0;exitPerimeter=0;strokeWidth=2;movable=0;resizable=0;rotatable=0;deletable=0;editable=0;locked=1;connectable=0;" edge="1" parent="2" source="141" target="180">
          <mxGeometry width="100" relative="1" as="geometry">
            <mxPoint x="690" y="117" as="sourcePoint" />
            <mxPoint x="690" y="80" as="targetPoint" />
          </mxGeometry>
        </mxCell>
        <mxCell id="144" value="" style="shape=waypoint;sketch=0;fillStyle=solid;size=6;pointerEvents=1;points=[];fillColor=none;resizable=0;rotatable=0;perimeter=centerPerimeter;snapToPoint=1;strokeWidth=2;movable=0;deletable=0;editable=0;locked=1;connectable=0;" vertex="1" parent="2">
          <mxGeometry x="895" y="50" width="20" height="20" as="geometry" />
        </mxCell>
        <mxCell id="145" value="" style="edgeStyle=elbowEdgeStyle;orthogonalLoop=1;jettySize=auto;html=1;rounded=0;endArrow=none;startFill=0;jumpStyle=arc;exitX=0.175;exitY=0.15;exitDx=0;exitDy=0;entryX=0.417;entryY=0.338;entryDx=0;entryDy=0;entryPerimeter=0;exitPerimeter=0;strokeWidth=2;movable=0;resizable=0;rotatable=0;deletable=0;editable=0;locked=1;connectable=0;" edge="1" parent="2" source="144" target="141">
          <mxGeometry width="100" relative="1" as="geometry">
            <mxPoint x="840" y="70" as="sourcePoint" />
            <mxPoint x="680" y="70" as="targetPoint" />
          </mxGeometry>
        </mxCell>
        <mxCell id="146" value="" style="edgeStyle=elbowEdgeStyle;orthogonalLoop=1;jettySize=auto;html=1;rounded=0;endArrow=none;startFill=0;jumpStyle=arc;entryX=0;entryY=0.5;entryDx=0;entryDy=0;entryPerimeter=0;strokeWidth=2;movable=0;resizable=0;rotatable=0;deletable=0;editable=0;locked=1;connectable=0;" edge="1" parent="2" target="60">
          <mxGeometry width="100" relative="1" as="geometry">
            <mxPoint x="905" y="60" as="sourcePoint" />
            <mxPoint x="840" y="70" as="targetPoint" />
          </mxGeometry>
        </mxCell>
        <mxCell id="147" value="" style="edgeStyle=elbowEdgeStyle;orthogonalLoop=1;jettySize=auto;html=1;rounded=0;endArrow=none;startFill=0;jumpStyle=arc;exitDx=0;exitDy=0;entryX=0.181;entryY=0.964;entryDx=0;entryDy=0;entryPerimeter=0;exitPerimeter=0;strokeWidth=2;movable=0;resizable=0;rotatable=0;deletable=0;editable=0;locked=1;connectable=0;" edge="1" parent="2" source="150" target="144">
          <mxGeometry width="100" relative="1" as="geometry">
            <mxPoint x="1007" y="79.75999999999999" as="sourcePoint" />
            <mxPoint x="932" y="79.75999999999999" as="targetPoint" />
          </mxGeometry>
        </mxCell>
        <mxCell id="148" value="" style="edgeStyle=elbowEdgeStyle;orthogonalLoop=1;jettySize=auto;html=1;rounded=0;endArrow=none;startFill=0;jumpStyle=arc;exitX=0;exitY=0.5;exitDx=0;exitDy=0;entryX=1;entryY=0.5;entryDx=0;entryDy=0;entryPerimeter=0;strokeWidth=2;movable=0;resizable=0;rotatable=0;deletable=0;editable=0;locked=1;connectable=0;" edge="1" parent="2" source="21" target="161">
          <mxGeometry width="100" relative="1" as="geometry">
            <mxPoint x="1082.5" y="79.75999999999999" as="sourcePoint" />
            <mxPoint x="1055.5" y="79.75999999999999" as="targetPoint" />
          </mxGeometry>
        </mxCell>
        <mxCell id="149" value="" style="edgeStyle=elbowEdgeStyle;orthogonalLoop=1;jettySize=auto;html=1;rounded=0;endArrow=none;startFill=0;jumpStyle=arc;exitX=0;exitY=0.5;exitDx=0;exitDy=0;entryDx=0;entryDy=0;entryPerimeter=0;exitPerimeter=0;strokeWidth=2;movable=0;resizable=0;rotatable=0;deletable=0;editable=0;locked=1;connectable=0;" edge="1" parent="2" source="161" target="150">
          <mxGeometry width="100" relative="1" as="geometry">
            <mxPoint x="982" y="60" as="sourcePoint" />
            <mxPoint x="905" y="60" as="targetPoint" />
          </mxGeometry>
        </mxCell>
        <mxCell id="150" value="" style="shape=waypoint;sketch=0;fillStyle=solid;size=6;pointerEvents=1;points=[];fillColor=none;resizable=0;rotatable=0;perimeter=centerPerimeter;snapToPoint=1;strokeWidth=2;movable=0;deletable=0;editable=0;locked=1;connectable=0;" vertex="1" parent="2">
          <mxGeometry x="945" y="50" width="20" height="20" as="geometry" />
        </mxCell>
        <mxCell id="151" value="" style="edgeStyle=elbowEdgeStyle;orthogonalLoop=1;jettySize=auto;html=1;rounded=0;endArrow=none;startFill=0;jumpStyle=arc;exitDx=0;exitDy=0;entryX=0.5;entryY=0;entryDx=0;entryDy=0;entryPerimeter=0;exitPerimeter=0;exitX=0.435;exitY=0.635;strokeWidth=2;movable=0;resizable=0;rotatable=0;deletable=0;editable=0;locked=1;connectable=0;" edge="1" parent="2" source="150" target="159">
          <mxGeometry width="100" relative="1" as="geometry">
            <mxPoint x="965" y="70" as="sourcePoint" />
            <mxPoint x="915" y="70" as="targetPoint" />
          </mxGeometry>
        </mxCell>
        <mxCell id="152" value="" style="edgeStyle=elbowEdgeStyle;orthogonalLoop=1;jettySize=auto;html=1;rounded=0;endArrow=none;startFill=0;jumpStyle=arc;exitX=0.9;exitY=0.408;exitDx=0;exitDy=0;exitPerimeter=0;entryDx=0;entryDy=0;strokeWidth=2;movable=0;resizable=0;rotatable=0;deletable=0;editable=0;locked=1;connectable=0;" edge="1" parent="2" source="137" target="153">
          <mxGeometry width="100" relative="1" as="geometry">
            <mxPoint x="905" y="450" as="sourcePoint" />
            <mxPoint x="1042" y="450" as="targetPoint" />
          </mxGeometry>
        </mxCell>
        <mxCell id="153" value="" style="shape=waypoint;sketch=0;fillStyle=solid;size=6;pointerEvents=1;points=[];fillColor=none;resizable=0;rotatable=0;perimeter=centerPerimeter;snapToPoint=1;strokeWidth=2;movable=0;deletable=0;editable=0;locked=1;connectable=0;" vertex="1" parent="2">
          <mxGeometry x="946" y="440.25" width="20" height="20" as="geometry" />
        </mxCell>
        <mxCell id="154" value="" style="edgeStyle=elbowEdgeStyle;orthogonalLoop=1;jettySize=auto;html=1;rounded=0;endArrow=none;startFill=0;exitDx=0;exitDy=0;jumpStyle=arc;exitX=0.544;exitY=1.005;exitPerimeter=0;entryX=0.471;entryY=0.37;entryDx=0;entryDy=0;entryPerimeter=0;strokeWidth=2;movable=0;resizable=0;rotatable=0;deletable=0;editable=0;locked=1;connectable=0;" edge="1" parent="2" source="159" target="153">
          <mxGeometry width="100" relative="1" as="geometry">
            <mxPoint x="915" y="280" as="sourcePoint" />
            <mxPoint x="915" y="460" as="targetPoint" />
          </mxGeometry>
        </mxCell>
        <mxCell id="155" value="V&lt;sub&gt;High&lt;/sub&gt;" style="text;html=1;align=center;verticalAlign=middle;resizable=0;points=[];autosize=1;strokeColor=none;fillColor=none;fontSize=20;fontStyle=1;rounded=0;strokeWidth=2;movable=0;rotatable=0;deletable=0;editable=0;locked=1;connectable=0;" vertex="1" parent="2">
          <mxGeometry x="1014.5" width="70" height="40" as="geometry" />
        </mxCell>
        <mxCell id="156" value="C&lt;sub&gt;2Low&lt;/sub&gt;" style="text;html=1;align=center;verticalAlign=middle;resizable=0;points=[];autosize=1;strokeColor=none;fillColor=none;fontSize=20;fontStyle=1;rounded=0;strokeWidth=2;movable=0;rotatable=0;deletable=0;editable=0;locked=1;connectable=0;" vertex="1" parent="2">
          <mxGeometry x="388" y="314.0000000000001" width="80" height="40" as="geometry" />
        </mxCell>
        <mxCell id="157" value="" style="edgeStyle=elbowEdgeStyle;orthogonalLoop=1;jettySize=auto;html=1;rounded=0;endArrow=none;startFill=0;exitDx=0;exitDy=0;jumpStyle=arc;exitX=0.476;exitY=0.661;exitPerimeter=0;entryX=0.5;entryY=0;entryDx=0;entryDy=0;strokeWidth=2;movable=0;resizable=0;rotatable=0;deletable=0;editable=0;locked=1;connectable=0;" edge="1" parent="2" source="131" target="164">
          <mxGeometry width="100" relative="1" as="geometry">
            <mxPoint x="555" y="501.85" as="sourcePoint" />
            <mxPoint x="670" y="463" as="targetPoint" />
          </mxGeometry>
        </mxCell>
        <mxCell id="158" value="+" style="text;html=1;align=center;verticalAlign=middle;resizable=0;points=[];autosize=1;strokeColor=none;fillColor=none;fontStyle=1;rounded=0;movable=0;rotatable=0;deletable=0;editable=0;locked=1;connectable=0;" vertex="1" parent="2">
          <mxGeometry x="940" y="209.92999999999995" width="30" height="30" as="geometry" />
        </mxCell>
        <mxCell id="159" value="V" style="verticalLabelPosition=middle;shadow=0;dashed=0;align=center;html=1;verticalAlign=middle;strokeWidth=2;shape=ellipse;aspect=fixed;fontSize=20;spacing=0;spacingBottom=2;points=[[0,0.5,0,0,0],[0.5,0,0,0,0],[0.5,1,0,0,0],[1,0.5,0,0,0]];fillColor=none;movable=0;resizable=0;rotatable=0;deletable=0;editable=0;locked=1;connectable=0;" vertex="1" parent="2">
          <mxGeometry x="935" y="219.92999999999995" width="40" height="40" as="geometry" />
        </mxCell>
        <mxCell id="160" value="+" style="text;html=1;align=center;verticalAlign=middle;resizable=0;points=[];autosize=1;strokeColor=none;fillColor=none;fontStyle=1;rounded=0;movable=0;rotatable=0;deletable=0;editable=0;locked=1;connectable=0;" vertex="1" parent="2">
          <mxGeometry x="999" y="43" width="30" height="30" as="geometry" />
        </mxCell>
        <mxCell id="161" value="A" style="verticalLabelPosition=middle;shadow=0;dashed=0;align=center;html=1;verticalAlign=middle;strokeWidth=2;shape=ellipse;aspect=fixed;fontSize=20;spacing=0;spacingBottom=2;spacingTop=0;points=[[0,0.5,0,0,0],[0.5,0,0,0,0],[0.5,1,0,0,0],[1,0.5,0,0,0]];fillColor=none;movable=0;resizable=0;rotatable=0;deletable=0;editable=0;locked=1;connectable=0;" vertex="1" parent="2">
          <mxGeometry x="982" y="40" width="40" height="40" as="geometry" />
        </mxCell>
        <mxCell id="162" value="+" style="text;html=1;align=center;verticalAlign=middle;resizable=0;points=[];autosize=1;strokeColor=none;fillColor=none;fontStyle=1;rounded=0;movable=0;rotatable=0;deletable=0;editable=0;locked=1;connectable=0;" vertex="1" parent="2">
          <mxGeometry x="321" y="320" width="30" height="30" as="geometry" />
        </mxCell>
        <mxCell id="163" value="V" style="verticalLabelPosition=middle;shadow=0;dashed=0;align=center;html=1;verticalAlign=middle;strokeWidth=2;shape=ellipse;aspect=fixed;fontSize=20;spacing=0;spacingBottom=2;points=[[0,0.5,0,0,0],[0.5,0,0,0,0],[0.5,1,0,0,0],[1,0.5,0,0,0]];fillColor=none;movable=0;resizable=0;rotatable=0;deletable=0;editable=0;locked=1;connectable=0;" vertex="1" parent="2">
          <mxGeometry x="316" y="330" width="40" height="40" as="geometry" />
        </mxCell>
        <mxCell id="164" value="" style="shape=stencil(pZPZDoIwEEW/pq+mtOLyaFD/o8AojdiSUre/tzCgVmji8kIy9zJnbiZTwpO6EBUQRgvC14QxRt3HlRe/FHUFmUXtLIwUaQno1NboA1xkbjuCVAUYaRuXbwhdkYZBCU8yrZSDSK1qz3nxHUxI5XrpFWF0EuOYW1djVbkJR7BgUI1QJWz7NtIpoak8SUV22Bt9UvmwK+jttIER42HLssSNjOTpf6pEs6uB0dtHfYbnBiI6toBxdE8opQoT4k8Ifobp94C3CLN/I/iA+Q8Rpt8T/AgLD7D8IQL7nNBeYeBQ3KMNnVjbNrjRVsWH3gp3);whiteSpace=wrap;html=1;aspect=fixed;strokeWidth=2;movable=0;resizable=0;rotatable=0;deletable=0;editable=0;locked=1;connectable=0;" vertex="1" parent="2">
          <mxGeometry x="650" y="465" width="40" height="40" as="geometry" />
        </mxCell>
        <mxCell id="165" value="" style="pointerEvents=1;verticalLabelPosition=middle;shadow=0;dashed=0;align=left;html=1;verticalAlign=top;shape=mxgraph.electrical.resistors.resistor_2;labelPosition=center;spacingBottom=0;spacingLeft=25;direction=west;spacing=0;spacingTop=10;points=[[0,0.5,0,0,0],[0.5,0,0,0,-3],[0.5,1,0,0,2],[1,0.5,0,0,0]];fillColor=none;rotation=90;strokeWidth=2;movable=0;resizable=0;rotatable=0;deletable=0;editable=0;locked=1;connectable=0;" vertex="1" parent="2">
          <mxGeometry x="1074.5" y="235.25" width="60" height="20" as="geometry" />
        </mxCell>
        <mxCell id="166" value="" style="edgeStyle=orthogonalEdgeStyle;orthogonalLoop=1;jettySize=auto;html=1;rounded=0;endArrow=none;startFill=0;jumpStyle=arc;exitDx=0;exitDy=0;entryX=1;entryY=0.5;entryDx=0;entryDy=0;entryPerimeter=0;exitX=1;exitY=0.5;strokeWidth=2;movable=0;resizable=0;rotatable=0;deletable=0;editable=0;locked=1;connectable=0;" edge="1" parent="2" source="21" target="165">
          <mxGeometry width="100" relative="1" as="geometry">
            <mxPoint x="1099.52" y="51.25" as="sourcePoint" />
            <mxPoint x="1099.52" y="211.25" as="targetPoint" />
          </mxGeometry>
        </mxCell>
        <mxCell id="167" value="" style="edgeStyle=orthogonalEdgeStyle;orthogonalLoop=1;jettySize=auto;html=1;rounded=0;endArrow=none;startFill=0;jumpStyle=arc;exitDx=0;exitDy=0;entryX=1;entryY=0.5;entryDx=0;entryDy=0;exitX=0;exitY=0.5;strokeWidth=2;exitPerimeter=0;movable=0;resizable=0;rotatable=0;deletable=0;editable=0;locked=1;connectable=0;" edge="1" parent="2" source="165" target="22">
          <mxGeometry width="100" relative="1" as="geometry">
            <mxPoint x="1170" y="310" as="sourcePoint" />
            <mxPoint x="1220" y="465" as="targetPoint" />
          </mxGeometry>
        </mxCell>
        <mxCell id="168" value="R" style="text;html=1;align=center;verticalAlign=middle;resizable=0;points=[];autosize=1;strokeColor=none;fillColor=none;fontSize=20;fontStyle=1;rounded=0;strokeWidth=2;movable=0;rotatable=0;deletable=0;editable=0;locked=1;connectable=0;" vertex="1" parent="2">
          <mxGeometry x="1043" y="223.95000000000005" width="40" height="40" as="geometry" />
        </mxCell>
        <mxCell id="169" value="" style="pointerEvents=1;verticalLabelPosition=middle;shadow=0;dashed=0;align=left;html=1;verticalAlign=top;shape=mxgraph.electrical.signal_sources.source;aspect=fixed;points=[[0.5,0,0],[1,0.5,0],[0.5,1,0],[0,0.5,0]];elSignalType=dc3;direction=south;labelPosition=center;spacingBottom=0;spacingLeft=40;spacing=0;spacingTop=20;fillColor=none;strokeWidth=2;rotation=-90;movable=0;resizable=0;rotatable=0;deletable=0;editable=0;locked=1;connectable=0;" vertex="1" parent="2">
          <mxGeometry y="310.75" width="40" height="40" as="geometry" />
        </mxCell>
        <mxCell id="170" value="" style="edgeStyle=orthogonalEdgeStyle;orthogonalLoop=1;jettySize=auto;html=1;rounded=0;entryX=0;entryY=0.5;entryDx=0;entryDy=0;endArrow=none;startFill=0;exitDx=0;exitDy=0;jumpStyle=arc;strokeWidth=2;exitX=0.5;exitY=0;exitPerimeter=0;movable=0;resizable=0;rotatable=0;deletable=0;editable=0;locked=1;connectable=0;" edge="1" parent="2" source="169" target="18">
          <mxGeometry width="100" relative="1" as="geometry">
            <mxPoint x="164" y="227" as="sourcePoint" />
            <mxPoint x="255" y="227" as="targetPoint" />
          </mxGeometry>
        </mxCell>
        <mxCell id="171" value="" style="edgeStyle=orthogonalEdgeStyle;orthogonalLoop=1;jettySize=auto;html=1;rounded=0;entryX=0;entryY=0.5;entryDx=0;entryDy=0;endArrow=none;startFill=0;exitDx=0;exitDy=0;jumpStyle=arc;strokeWidth=2;exitX=0.5;exitY=1;exitPerimeter=0;movable=0;resizable=0;rotatable=0;deletable=0;editable=0;locked=1;connectable=0;" edge="1" parent="2" source="169" target="20">
          <mxGeometry width="100" relative="1" as="geometry">
            <mxPoint x="-46" y="460.25" as="sourcePoint" />
            <mxPoint x="45" y="460.25" as="targetPoint" />
          </mxGeometry>
        </mxCell>
        <mxCell id="172" value="Q&lt;sub&gt;1&lt;/sub&gt;" style="text;html=1;align=center;verticalAlign=middle;resizable=0;points=[];autosize=1;strokeColor=none;fillColor=none;fontSize=20;fontStyle=1;rounded=0;movable=0;rotatable=0;deletable=0;editable=0;locked=1;connectable=0;" vertex="1" parent="2">
          <mxGeometry x="615" y="80" width="50" height="40" as="geometry" />
        </mxCell>
        <mxCell id="173" value="" style="ellipse;whiteSpace=wrap;html=1;fillColor=light-dark(#99C3B7,#99C3B7);strokeWidth=2;strokeColor=default;container=0;movable=0;resizable=0;rotatable=0;deletable=0;editable=0;locked=1;connectable=0;" vertex="1" parent="2">
          <mxGeometry x="636" y="110" width="57" height="57" as="geometry" />
        </mxCell>
        <mxCell id="174" value="" style="shape=stencil(rZRNbsMgEIVPw7bC4GZf0fYexJnEKAQsoEl7+2CPLYU4Rv7pxtK8Jz5mHmDCha9lA4TRmvBPwhij8RPLG5ZlX0rfQBVQu0qn5F4DOj44e4abOoSeoEwNToXW5V+EfpAWSQkXlTUmQpQ1PnEe/AiTysS19Bdh/fZ/ffX2jnUTd7hAAId6gSph37PBxRYwF1GZGoeLvazOJ2d/zOFlO41soxoZg32xV3jo8ykBmht1QGhlphFsBYKniGIWotLWQ+ZYoj6KolMn8uPiaB1kgj0qrfE6ZnZdlP6asbPhz0OkTbBdgiiXN/FE2H4BthNWIcr/RhS75cex6i2kXZRLEK8fyuBN3vdu2ejBdCr+8jvhDg==);html=1;verticalAlign=top;align=left;spacingTop=10;spacing=0;spacingLeft=25;fillColor=none;flipV=1;rotation=-90;aspect=fixed;strokeWidth=2;container=0;movable=0;resizable=0;rotatable=0;deletable=0;editable=0;locked=1;connectable=0;" vertex="1" parent="2">
          <mxGeometry x="670" y="133.25" width="20" height="10" as="geometry" />
        </mxCell>
        <mxCell id="175" value="" style="edgeStyle=orthogonalEdgeStyle;orthogonalLoop=1;jettySize=auto;html=1;rounded=0;endArrow=none;startFill=0;entryX=1;entryY=0.5;entryDx=0;entryDy=0;strokeWidth=2;movable=0;resizable=0;rotatable=0;deletable=0;editable=0;locked=1;connectable=0;" edge="1" parent="2" source="176">
          <mxGeometry width="100" relative="1" as="geometry">
            <mxPoint x="670" y="124" as="sourcePoint" />
            <mxPoint x="680" y="133" as="targetPoint" />
          </mxGeometry>
        </mxCell>
        <mxCell id="176" value="" style="shape=waypoint;sketch=0;fillStyle=solid;size=6;pointerEvents=1;points=[];fillColor=none;resizable=0;rotatable=0;perimeter=centerPerimeter;snapToPoint=1;strokeColor=default;strokeWidth=1;container=0;movable=0;deletable=0;editable=0;locked=1;connectable=0;" vertex="1" parent="2">
          <mxGeometry x="660" y="107.25" width="20" height="20" as="geometry" />
        </mxCell>
        <mxCell id="177" value="" style="edgeStyle=orthogonalEdgeStyle;orthogonalLoop=1;jettySize=auto;html=1;rounded=0;exitX=0;exitY=0.5;exitDx=0;exitDy=0;endArrow=none;startFill=0;strokeWidth=2;movable=0;resizable=0;rotatable=0;deletable=0;editable=0;locked=1;connectable=0;" edge="1" parent="2" target="178">
          <mxGeometry width="100" relative="1" as="geometry">
            <mxPoint x="680" y="148" as="sourcePoint" />
            <mxPoint x="680" y="169" as="targetPoint" />
            <Array as="points">
              <mxPoint x="680" y="158" />
            </Array>
          </mxGeometry>
        </mxCell>
        <mxCell id="178" value="" style="shape=waypoint;sketch=0;fillStyle=solid;size=6;pointerEvents=1;points=[];fillColor=none;resizable=0;rotatable=0;perimeter=centerPerimeter;snapToPoint=1;strokeColor=default;strokeWidth=1;container=0;movable=0;deletable=0;editable=0;locked=1;connectable=0;" vertex="1" parent="2">
          <mxGeometry x="660" y="148" width="20" height="20" as="geometry" />
        </mxCell>
        <mxCell id="179" value="" style="edgeStyle=orthogonalEdgeStyle;orthogonalLoop=1;jettySize=auto;html=1;rounded=0;entryX=0.5;entryY=0.5;entryDx=0;entryDy=0;entryPerimeter=0;endArrow=block;endFill=0;strokeWidth=2;movable=0;resizable=0;rotatable=0;deletable=0;editable=0;locked=1;connectable=0;" edge="1" parent="2" source="178">
          <mxGeometry width="100" relative="1" as="geometry">
            <mxPoint x="580" y="169" as="sourcePoint" />
            <mxPoint x="650" y="138" as="targetPoint" />
            <Array as="points">
              <mxPoint x="670" y="138" />
            </Array>
          </mxGeometry>
        </mxCell>
        <mxCell id="180" value="" style="shape=waypoint;sketch=0;fillStyle=solid;size=6;pointerEvents=1;points=[];fillColor=none;resizable=1;rotatable=1;perimeter=centerPerimeter;snapToPoint=1;movable=1;deletable=1;editable=1;locked=0;connectable=1;strokeColor=none;" vertex="1" parent="2">
          <mxGeometry x="660" y="50" width="20" height="20" as="geometry" />
        </mxCell>
        <mxCell id="181" value="" style="edgeStyle=elbowEdgeStyle;orthogonalLoop=1;jettySize=auto;html=1;rounded=0;endArrow=none;startFill=0;jumpStyle=arc;exitX=1;exitY=0;exitDx=0;exitDy=0;entryX=0.56;entryY=0.63;entryDx=0;entryDy=0;entryPerimeter=0;strokeWidth=2;movable=0;resizable=0;rotatable=0;deletable=0;editable=0;locked=1;connectable=0;" edge="1" parent="2" source="182" target="180">
          <mxGeometry width="100" relative="1" as="geometry">
            <mxPoint x="685" y="90" as="sourcePoint" />
            <mxPoint x="770" y="66.53999999999996" as="targetPoint" />
          </mxGeometry>
        </mxCell>
        <mxCell id="182" value="" style="shape=stencil(xZXbboMwDIafJrdTTu24nej6Hin1RlSaoJAe9vYLhFYlLGgjVJMQkv3jL45jHMTyphQ1IIoviG0QpRy7lzNLb2a9KZoaCut9Z2Gk2FXglcYafYCL3Ns+RKoSjLStyt4RfnPftA/LC62Ug0itmoHyoDuYkMrF4quH9ct/9dbLytu1W+EIFoz3E+9FdPtrMBmCn4MlS2HvGw8LEUJY7jyxQrN8J4rDp9EntR9HRbUPbeAH4S7LqvJNMLGpWrTtMRJu8lGfIXboazxVrxuhkuqBQF5nIIZJBAj6P1kEtSDZ37MIECw9C8aTs+Dr5CxWM04kbC2anMWcvuCLI9LPdM5fxhdHZJOIbkxFJom7yGIzqAsbDbHO6y+/zvEN);whiteSpace=wrap;html=1;strokeWidth=2;movable=0;resizable=0;rotatable=0;deletable=0;editable=0;locked=1;connectable=0;" vertex="1" parent="2">
          <mxGeometry x="630" y="97.25" width="40" height="80" as="geometry" />
        </mxCell>
        <mxCell id="183" value="" style="ellipse;whiteSpace=wrap;html=1;fillColor=light-dark(#99C3B7,#99C3B7);strokeWidth=2;strokeColor=default;container=0;movable=0;resizable=0;rotatable=0;deletable=0;editable=0;locked=1;connectable=0;" vertex="1" parent="2">
          <mxGeometry x="636" y="310" width="57" height="57" as="geometry" />
        </mxCell>
        <mxCell id="184" value="" style="shape=stencil(rZRNbsMgEIVPw7bC4GZf0fYexJnEKAQsoEl7+2CPLYU4Rv7pxtK8Jz5mHmDCha9lA4TRmvBPwhij8RPLG5ZlX0rfQBVQu0qn5F4DOj44e4abOoSeoEwNToXW5V+EfpAWSQkXlTUmQpQ1PnEe/AiTysS19Bdh/fZ/ffX2jnUTd7hAAId6gSph37PBxRYwF1GZGoeLvazOJ2d/zOFlO41soxoZg32xV3jo8ykBmht1QGhlphFsBYKniGIWotLWQ+ZYoj6KolMn8uPiaB1kgj0qrfE6ZnZdlP6asbPhz0OkTbBdgiiXN/FE2H4BthNWIcr/RhS75cex6i2kXZRLEK8fyuBN3vdu2ejBdCr+8jvhDg==);html=1;verticalAlign=top;align=left;spacingTop=10;spacing=0;spacingLeft=25;fillColor=none;flipV=1;rotation=-90;aspect=fixed;strokeWidth=2;container=0;movable=0;resizable=0;rotatable=0;deletable=0;editable=0;locked=1;connectable=0;" vertex="1" parent="2">
          <mxGeometry x="670" y="333.25" width="20" height="10" as="geometry" />
        </mxCell>
        <mxCell id="185" value="" style="edgeStyle=orthogonalEdgeStyle;orthogonalLoop=1;jettySize=auto;html=1;rounded=0;endArrow=none;startFill=0;entryX=1;entryY=0.5;entryDx=0;entryDy=0;strokeWidth=2;movable=0;resizable=0;rotatable=0;deletable=0;editable=0;locked=1;connectable=0;" edge="1" parent="2" source="186">
          <mxGeometry width="100" relative="1" as="geometry">
            <mxPoint x="670" y="324" as="sourcePoint" />
            <mxPoint x="680" y="333" as="targetPoint" />
          </mxGeometry>
        </mxCell>
        <mxCell id="186" value="" style="shape=waypoint;sketch=0;fillStyle=solid;size=6;pointerEvents=1;points=[];fillColor=none;resizable=0;rotatable=0;perimeter=centerPerimeter;snapToPoint=1;strokeColor=default;strokeWidth=1;container=0;movable=0;deletable=0;editable=0;locked=1;connectable=0;" vertex="1" parent="2">
          <mxGeometry x="660" y="307.25" width="20" height="20" as="geometry" />
        </mxCell>
        <mxCell id="187" value="" style="edgeStyle=orthogonalEdgeStyle;orthogonalLoop=1;jettySize=auto;html=1;rounded=0;exitX=0;exitY=0.5;exitDx=0;exitDy=0;endArrow=none;startFill=0;strokeWidth=2;movable=0;resizable=0;rotatable=0;deletable=0;editable=0;locked=1;connectable=0;" edge="1" parent="2" target="188">
          <mxGeometry width="100" relative="1" as="geometry">
            <mxPoint x="680" y="348" as="sourcePoint" />
            <mxPoint x="680" y="369" as="targetPoint" />
            <Array as="points">
              <mxPoint x="680" y="358" />
            </Array>
          </mxGeometry>
        </mxCell>
        <mxCell id="188" value="" style="shape=waypoint;sketch=0;fillStyle=solid;size=6;pointerEvents=1;points=[];fillColor=none;resizable=0;rotatable=0;perimeter=centerPerimeter;snapToPoint=1;strokeColor=default;strokeWidth=1;container=0;movable=0;deletable=0;editable=0;locked=1;connectable=0;" vertex="1" parent="2">
          <mxGeometry x="660" y="348" width="20" height="20" as="geometry" />
        </mxCell>
        <mxCell id="189" value="" style="edgeStyle=orthogonalEdgeStyle;orthogonalLoop=1;jettySize=auto;html=1;rounded=0;entryX=0.5;entryY=0.5;entryDx=0;entryDy=0;entryPerimeter=0;endArrow=block;endFill=0;strokeWidth=2;movable=0;resizable=0;rotatable=0;deletable=0;editable=0;locked=1;connectable=0;" edge="1" parent="2" source="188">
          <mxGeometry width="100" relative="1" as="geometry">
            <mxPoint x="580" y="369" as="sourcePoint" />
            <mxPoint x="650" y="338" as="targetPoint" />
            <Array as="points">
              <mxPoint x="670" y="338" />
            </Array>
          </mxGeometry>
        </mxCell>
        <mxCell id="190" value="Q&lt;sub&gt;2&lt;/sub&gt;" style="text;html=1;align=center;verticalAlign=middle;resizable=0;points=[];autosize=1;strokeColor=none;fillColor=none;fontSize=20;fontStyle=1;rounded=0;movable=0;rotatable=0;deletable=0;editable=0;locked=1;connectable=0;" vertex="1" parent="2">
          <mxGeometry x="615" y="280" width="50" height="40" as="geometry" />
        </mxCell>
        <mxCell id="191" value="" style="shape=stencil(xZXbboMwDIafJrdTTu24nej6Hin1RlSaoJAe9vYLhFYlLGgjVJMQkv3jL45jHMTyphQ1IIoviG0QpRy7lzNLb2a9KZoaCut9Z2Gk2FXglcYafYCL3Ns+RKoSjLStyt4RfnPftA/LC62Ug0itmoHyoDuYkMrF4quH9ct/9dbLytu1W+EIFoz3E+9FdPtrMBmCn4MlS2HvGw8LEUJY7jyxQrN8J4rDp9EntR9HRbUPbeAH4S7LqvJNMLGpWrTtMRJu8lGfIXboazxVrxuhkuqBQF5nIIZJBAj6P1kEtSDZ37MIECw9C8aTs+Dr5CxWM04kbC2anMWcvuCLI9LPdM5fxhdHZJOIbkxFJom7yGIzqAsbDbHO6y+/zvEN);whiteSpace=wrap;html=1;strokeWidth=2;movable=0;resizable=0;rotatable=0;deletable=0;editable=0;locked=1;connectable=0;" vertex="1" parent="2">
          <mxGeometry x="630" y="297.25" width="40" height="80" as="geometry" />
        </mxCell>
        <mxCell id="192" value="" style="edgeStyle=none;orthogonalLoop=1;jettySize=auto;html=1;labelBackgroundColor=none;fontSize=10;startArrow=none;startFill=0;endArrow=openThin;endFill=0;curved=1;dashed=1;rounded=0;strokeWidth=2;fontColor=light-dark(default, #ed333b);strokeColor=light-dark(#FF3333,#FF3333);movable=0;resizable=0;rotatable=0;deletable=0;editable=0;locked=1;connectable=0;" edge="1" parent="2">
          <mxGeometry width="80" relative="1" as="geometry">
            <mxPoint x="430" y="210" as="sourcePoint" />
            <mxPoint x="470" y="210" as="targetPoint" />
            <Array as="points" />
          </mxGeometry>
        </mxCell>
        <mxCell id="193" value="&lt;i&gt;i1Low&lt;/i&gt;" style="edgeLabel;html=1;align=center;verticalAlign=middle;resizable=0;points=[];fontSize=15;labelBackgroundColor=none;fontColor=light-dark(#FF3333,#FF3333);movable=0;rotatable=0;deletable=0;editable=0;locked=1;connectable=0;" vertex="1" connectable="0" parent="192">
          <mxGeometry x="0.52" y="-1" relative="1" as="geometry">
            <mxPoint x="-13" y="-11" as="offset" />
          </mxGeometry>
        </mxCell>
        <mxCell id="194" value="" style="edgeStyle=none;orthogonalLoop=1;jettySize=auto;html=1;labelBackgroundColor=none;fontSize=10;startArrow=none;startFill=0;endArrow=openThin;endFill=0;curved=1;dashed=1;rounded=0;strokeWidth=2;fontColor=light-dark(default, #ed333b);strokeColor=light-dark(#FF3333,#FF3333);movable=0;resizable=0;rotatable=0;deletable=0;editable=0;locked=1;connectable=0;" edge="1" parent="2">
          <mxGeometry width="80" relative="1" as="geometry">
            <mxPoint x="1047" y="96.82999999999993" as="sourcePoint" />
            <mxPoint x="1087" y="96.82999999999993" as="targetPoint" />
            <Array as="points" />
          </mxGeometry>
        </mxCell>
        <mxCell id="195" value="&lt;i&gt;iHigh&lt;/i&gt;" style="edgeLabel;html=1;align=center;verticalAlign=middle;resizable=0;points=[];fontSize=15;labelBackgroundColor=none;fontColor=light-dark(#FF3333,#FF3333);movable=0;rotatable=0;deletable=0;editable=0;locked=1;connectable=0;" vertex="1" connectable="0" parent="194">
          <mxGeometry x="0.52" y="-1" relative="1" as="geometry">
            <mxPoint x="-12" y="-15" as="offset" />
          </mxGeometry>
        </mxCell>
        <mxCell id="196" value="" style="edgeStyle=none;orthogonalLoop=1;jettySize=auto;html=1;labelBackgroundColor=none;fontSize=10;startArrow=openThin;startFill=0;endArrow=openThin;endFill=0;curved=1;dashed=1;rounded=0;strokeColor=light-dark(#FF3333,#FF3333);strokeWidth=2;movable=0;resizable=0;rotatable=0;deletable=0;editable=0;locked=1;connectable=0;" edge="1" parent="2">
          <mxGeometry width="80" relative="1" as="geometry">
            <mxPoint x="1012.6600000000001" y="380.25" as="sourcePoint" />
            <mxPoint x="1012.6600000000001" y="140.25" as="targetPoint" />
            <Array as="points" />
          </mxGeometry>
        </mxCell>
        <mxCell id="197" value="&lt;div&gt;&lt;i&gt;&amp;nbsp;&amp;nbsp;&amp;nbsp;&amp;nbsp;&amp;nbsp;&amp;nbsp;&lt;/i&gt;&lt;/div&gt;&lt;div&gt;&lt;i&gt;&lt;br&gt;&lt;/i&gt;&lt;/div&gt;&lt;div&gt;&lt;i&gt;&lt;br&gt;&lt;/i&gt;&lt;/div&gt;&lt;div&gt;&lt;i&gt;&lt;br&gt;&lt;/i&gt;&lt;/div&gt;&lt;div&gt;&lt;i&gt;&lt;br&gt;&lt;/i&gt;&lt;/div&gt;&lt;div&gt;&lt;i&gt;&amp;nbsp;&amp;nbsp;&amp;nbsp;&amp;nbsp;&amp;nbsp;&amp;nbsp;&amp;nbsp;&amp;nbsp;&lt;/i&gt;&lt;/div&gt;&lt;div&gt;&lt;i&gt;&amp;nbsp;&amp;nbsp;&amp;nbsp;&amp;nbsp;&amp;nbsp; VHigh&lt;/i&gt;&lt;/div&gt;" style="edgeLabel;html=1;align=center;verticalAlign=middle;resizable=0;points=[];fontSize=15;labelBackgroundColor=none;fontColor=light-dark(#FF3333,#FF3333);movable=0;rotatable=0;deletable=0;editable=0;locked=1;connectable=0;" vertex="1" connectable="0" parent="196">
          <mxGeometry x="0.52" y="-1" relative="1" as="geometry">
            <mxPoint x="9" y="10" as="offset" />
          </mxGeometry>
        </mxCell>
        <mxCell id="198" value="" style="edgeStyle=none;orthogonalLoop=1;jettySize=auto;html=1;labelBackgroundColor=none;fontSize=10;startArrow=openThin;startFill=0;endArrow=openThin;endFill=0;curved=1;dashed=1;rounded=0;strokeColor=light-dark(#FF3333,#FF3333);strokeWidth=2;movable=0;resizable=0;rotatable=0;deletable=0;editable=0;locked=1;connectable=0;" edge="1" parent="2">
          <mxGeometry width="80" relative="1" as="geometry">
            <mxPoint x="49.500000000000114" y="403.49" as="sourcePoint" />
            <mxPoint x="50" y="250" as="targetPoint" />
            <Array as="points" />
          </mxGeometry>
        </mxCell>
        <mxCell id="199" value="&lt;div&gt;&lt;i&gt;&amp;nbsp;&amp;nbsp;&amp;nbsp;&amp;nbsp;&amp;nbsp;&amp;nbsp;&lt;/i&gt;&lt;/div&gt;&lt;div&gt;&lt;i&gt;&lt;br&gt;&lt;/i&gt;&lt;/div&gt;&lt;div&gt;&lt;i&gt;&lt;br&gt;&lt;/i&gt;&lt;/div&gt;&lt;div&gt;&lt;i&gt;&lt;br&gt;&lt;/i&gt;&lt;/div&gt;&lt;div&gt;&lt;i&gt;&lt;br&gt;&lt;/i&gt;&lt;/div&gt;&lt;div&gt;&lt;i&gt;&amp;nbsp;&amp;nbsp;&amp;nbsp;&amp;nbsp;&amp;nbsp;&amp;nbsp;&amp;nbsp;&amp;nbsp;&lt;/i&gt;&lt;/div&gt;&lt;div&gt;&lt;i&gt;&amp;nbsp;&amp;nbsp;&amp;nbsp;&amp;nbsp;&amp;nbsp;&amp;nbsp;&amp;nbsp;&amp;nbsp; V&lt;sub&gt;Low1&lt;/sub&gt;&lt;/i&gt;&lt;/div&gt;" style="edgeLabel;html=1;align=center;verticalAlign=middle;resizable=0;points=[];fontSize=15;labelBackgroundColor=none;fontColor=light-dark(#FF3333,#FF3333);movable=0;rotatable=0;deletable=0;editable=0;locked=1;connectable=0;" vertex="1" connectable="0" parent="198">
          <mxGeometry x="0.52" y="-1" relative="1" as="geometry">
            <mxPoint x="9" y="10" as="offset" />
          </mxGeometry>
        </mxCell>
      </root>
    </mxGraphModel>
  </diagram>
</mxfile>
